<svg width="36" height="36" viewBox="0 0 36 36" fill="none" xmlns="http://www.w3.org/2000/svg">
<path d="M26.25 25.23L29.91 27.345L28.785 29.295L24 26.535V21H26.25V25.23ZM36 25.5C36 31.305 31.305 36 25.5 36C19.695 36 15 31.305 15 25.5C15 24.99 15.045 24.495 15.12 24H3V6H30V16.02C33.54 17.715 36 21.315 36 25.5ZM16.02 21C16.29 20.46 16.575 19.95 16.92 19.455C16.785 19.5 16.65 19.5 16.5 19.5C14.01 19.5 12 17.49 12 15C12 12.51 14.01 10.5 16.5 10.5C18.99 10.5 21 12.51 21 15C21 15.375 20.94 15.75 20.85 16.095C22.26 15.405 23.835 15 25.5 15C26.01 15 26.505 15.045 27 15.12V12C26.2044 12 25.4413 11.6839 24.8787 11.1213C24.3161 10.5587 24 9.79565 24 9H9C9 10.665 7.665 12 6 12V18C6.79565 18 7.55871 18.3161 8.12132 18.8787C8.68393 19.4413 9 20.2044 9 21H16.02ZM33 25.5C33 21.36 29.64 18 25.5 18C21.36 18 18 21.36 18 25.5C18 29.64 21.36 33 25.5 33C29.64 33 33 29.64 33 25.5Z" fill="black"/>
</svg>
