<svg width="36" height="36" viewBox="0 0 36 36" fill="none" xmlns="http://www.w3.org/2000/svg">
<path d="M28.5 30C28.5 31.665 27.165 33 25.5 33C24.7044 33 23.9413 32.6839 23.3787 32.1213C22.8161 31.5587 22.5 30.7956 22.5 30C22.5 28.335 23.835 27 25.5 27C26.2956 27 27.0587 27.3161 27.6213 27.8787C28.1839 28.4413 28.5 29.2044 28.5 30ZM10.5 27C8.835 27 7.5 28.335 7.5 30C7.5 30.7956 7.81607 31.5587 8.37868 32.1213C8.94129 32.6839 9.70435 33 10.5 33C12.165 33 13.5 31.665 13.5 30C13.5 28.335 12.165 27 10.5 27ZM10.8 21.945L10.755 22.125C10.755 22.335 10.92 22.5 11.13 22.5H28.5V25.5H10.5C9.70435 25.5 8.94129 25.1839 8.37868 24.6213C7.81607 24.0587 7.5 23.2956 7.5 22.5C7.5 21.975 7.635 21.48 7.86 21.06L9.9 17.385L4.5 6H1.5V3H6.405L7.815 6H30C30.825 6 31.5 6.675 31.5 7.5C31.5 7.755 31.425 8.01 31.32 8.25L25.95 17.955C25.44 18.87 24.45 19.5 23.325 19.5H12.15L10.8 21.945M12.75 16.5H15V13.5H11.34L12.75 16.5ZM16.5 13.5V16.5H21V13.5H16.5ZM21 12V9H16.5V12H21ZM25.665 13.5H22.5V16.5H24L25.665 13.5ZM28.17 9H22.5V12H26.505L28.17 9ZM9.21 9L10.62 12H15V9H9.21Z" fill="white"/>
</svg>
