<svg width="36" height="36" viewBox="0 0 36 36" fill="none" xmlns="http://www.w3.org/2000/svg">
<path d="M10.5 27C8.85 27 7.515 28.35 7.515 30C7.515 31.65 8.85 33 10.5 33C12.15 33 13.5 31.65 13.5 30C13.5 28.35 12.15 27 10.5 27ZM25.5 27C23.85 27 22.515 28.35 22.515 30C22.515 31.65 23.85 33 25.5 33C27.15 33 28.5 31.65 28.5 30C28.5 28.35 27.15 27 25.5 27ZM12.15 19.5H23.325C24.45 19.5 25.44 18.885 25.95 17.955L31.5 7.44L28.875 6L23.325 16.5H12.795L6.405 3H1.5V6H4.5L9.9 17.385L7.875 21.045C6.78 23.055 8.22 25.5 10.5 25.5H28.5V22.5H10.5L12.15 19.5ZM18 3L24 9L18 15L15.885 12.885L18.255 10.5H12V7.5H18.255L15.87 5.115L18 3Z" fill="black"/>
</svg>
