<svg width="36" height="36" viewBox="0 0 36 36" fill="none" xmlns="http://www.w3.org/2000/svg">
<path d="M17.985 3C9.705 3 3 9.72 3 18C3 26.28 9.705 33 17.985 33C26.28 33 33 26.28 33 18C33 9.72 26.28 3 17.985 3ZM12.75 12C13.995 12 15 13.005 15 14.25C15 15.495 13.995 16.5 12.75 16.5C11.505 16.5 10.5 15.495 10.5 14.25C10.5 13.005 11.505 12 12.75 12ZM25.065 22.08C23.7 25.005 21.06 27 18 27C14.94 27 12.3 25.005 10.935 22.08C10.695 21.585 11.055 21 11.61 21H24.39C24.945 21 25.305 21.585 25.065 22.08V22.08ZM23.25 16.5C22.005 16.5 21 15.495 21 14.25C21 13.005 22.005 12 23.25 12C24.495 12 25.5 13.005 25.5 14.25C25.5 15.495 24.495 16.5 23.25 16.5Z" fill="black"/>
</svg>
