<svg width="36" height="36" viewBox="0 0 36 36" fill="none" xmlns="http://www.w3.org/2000/svg">
<path d="M29.955 32.0774L24.921 27.0434C22.749 28.0334 20.3865 28.5299 18 28.5029C15.54 28.5329 13.1055 28.0019 10.881 26.9504C9.157 26.1093 7.60893 24.9476 6.3195 23.5274C4.95071 22.0602 3.87491 20.345 3.15 18.4739L3 18.0029L3.1575 17.5289C4.24172 14.7634 6.06638 12.3497 8.4315 10.5524L4.5 6.62093L6.6195 4.50293L32.073 29.9564L29.958 32.0774H29.955V32.0774ZM10.554 12.6764C8.63689 14.0203 7.12298 15.862 6.1755 18.0029C7.16838 20.2937 8.82644 22.2334 10.9348 23.5707C13.0431 24.908 15.5045 25.5811 18 25.5029C19.5748 25.5159 21.1403 25.2623 22.6305 24.7529L19.9305 22.0529C19.3305 22.3469 18.6705 22.5014 18 22.5029C16.8088 22.4955 15.6686 22.019 14.8263 21.1767C13.984 20.3344 13.5075 19.1941 13.5 18.0029C13.5 17.3324 13.6545 16.6709 13.95 16.0679L10.554 12.6764ZM29.778 23.4179L27.69 21.3314C28.5684 20.3383 29.2884 19.2156 29.8245 18.0029C28.833 15.7112 27.1752 13.7705 25.0666 12.4331C22.9579 11.0956 20.4958 10.4231 18 10.5029C17.6295 10.5029 17.2575 10.5164 16.8975 10.5419L14.25 7.89143C15.483 7.62743 16.74 7.49693 18 7.50293C20.46 7.47293 22.8945 8.00393 25.119 9.05543C26.844 9.89543 28.3905 11.0579 29.6805 12.4784C31.0486 13.9439 32.1244 15.657 32.85 17.5259L33 18.0029L32.8425 18.4769C32.1402 20.3041 31.1013 21.9831 29.7795 23.4269L29.778 23.4179V23.4179Z" fill="black"/>
</svg>
