<svg width="36" height="36" viewBox="0 0 36 36" fill="none" xmlns="http://www.w3.org/2000/svg">
<path d="M28.9348 25.935L26.9998 24V16.5C26.9998 11.895 24.5398 8.04 20.2498 7.02V6C20.2498 4.755 19.2448 3.75 17.9998 3.75C16.7548 3.75 15.7498 4.755 15.7498 6V7.02C11.4448 8.04 8.99983 11.88 8.99983 16.5V24L7.06483 25.935C6.11983 26.88 6.77983 28.5 8.11483 28.5H27.8698C29.2198 28.5 29.8798 26.88 28.9348 25.935ZM23.9998 25.5H11.9998V16.5C11.9998 12.78 14.2648 9.75 17.9998 9.75C21.7348 9.75 23.9998 12.78 23.9998 16.5V25.5ZM17.9998 33C19.6498 33 20.9998 31.65 20.9998 30H14.9998C14.9998 30.7956 15.3159 31.5587 15.8785 32.1213C16.4411 32.6839 17.2042 33 17.9998 33Z" fill="#FC870B"/>
</svg>
