<svg width="36" height="36" viewBox="0 0 36 36" fill="none" xmlns="http://www.w3.org/2000/svg">
<path d="M33 10.86C33.0012 10.6626 32.9633 10.4669 32.8887 10.2842C32.814 10.1014 32.704 9.93519 32.565 9.79503L26.205 3.43503C26.0649 3.296 25.8986 3.18602 25.7159 3.11137C25.5331 3.03672 25.3374 2.99888 25.14 3.00003C24.9426 2.99888 24.7469 3.03672 24.5642 3.11137C24.3814 3.18602 24.2152 3.296 24.075 3.43503L19.83 7.68002L3.43503 24.075C3.296 24.2152 3.18602 24.3814 3.11137 24.5642C3.03672 24.7469 2.99888 24.9426 3.00003 25.14V31.5C3.00003 31.8979 3.15806 32.2794 3.43936 32.5607C3.72067 32.842 4.1022 33 4.50003 33H10.86C11.0699 33.0114 11.2799 32.9786 11.4763 32.9037C11.6726 32.8287 11.8511 32.7134 12 32.565L28.305 16.17L32.565 12C32.7019 11.8546 32.8135 11.6873 32.895 11.505C32.9095 11.3855 32.9095 11.2646 32.895 11.145C32.902 11.0752 32.902 11.0048 32.895 10.935L33 10.86ZM10.245 30H6.00003V25.755L20.895 10.86L25.14 15.105L10.245 30ZM27.255 12.99L23.01 8.74502L25.14 6.63003L29.37 10.86L27.255 12.99Z" fill="black"/>
</svg>
