<svg width="38" height="38" viewBox="0 0 38 38" fill="none" xmlns="http://www.w3.org/2000/svg">
<path d="M37 17.8768L19.98 33.9288C17.895 35.8952 15.067 37 12.1182 37C9.1695 37 6.34153 35.8952 4.25646 33.9288C2.17138 31.9623 1 29.2951 1 26.5141C1 23.7331 2.17138 21.0659 4.25646 19.0995L21.2764 3.0475C22.6665 1.73651 24.5518 1 26.5176 1C28.4835 1 30.3688 1.73651 31.7588 3.0475C33.1489 4.35849 33.9298 6.13657 33.9298 7.99059C33.9298 9.84461 33.1489 11.6227 31.7588 12.9337L14.7203 28.9857C14.3762 29.3102 13.9676 29.5677 13.518 29.7433C13.0683 29.919 12.5864 30.0094 12.0997 30.0094C11.613 30.0094 11.1311 29.919 10.6815 29.7433C10.2318 29.5677 9.82327 29.3102 9.47913 28.9857C9.13499 28.6611 8.862 28.2758 8.67575 27.8517C8.4895 27.4276 8.39364 26.9731 8.39364 26.5141C8.39364 26.0551 8.4895 25.6006 8.67575 25.1765C8.862 24.7524 9.13499 24.3671 9.47913 24.0426L25.2027 9.23073" stroke="black" stroke-width="1.5" stroke-linecap="round" stroke-linejoin="round"/>
</svg>
