<svg width="36" height="36" viewBox="0 0 36 36" fill="none" xmlns="http://www.w3.org/2000/svg">
<path d="M18 13.5C16.809 13.5079 15.6689 13.9845 14.8267 14.8267C13.9845 15.6689 13.5079 16.809 13.5 18C13.5 20.463 15.537 22.5 18 22.5C20.4615 22.5 22.5 20.463 22.5 18C22.5 15.5385 20.4615 13.5 18 13.5Z" fill="black"/>
<path d="M17.9999 7.5C6.55045 7.5 3.10945 17.4255 3.07795 17.526L2.91895 18L3.07645 18.474C3.10945 18.5745 6.55045 28.5 17.9999 28.5C29.4494 28.5 32.8904 18.5745 32.9219 18.474L33.0809 18L32.9234 17.526C32.8904 17.4255 29.4494 7.5 17.9999 7.5ZM17.9999 25.5C9.97345 25.5 6.86394 19.731 6.11094 18C6.86694 16.263 9.97795 10.5 17.9999 10.5C26.0264 10.5 29.1359 16.269 29.8889 18C29.1329 19.737 26.0219 25.5 17.9999 25.5V25.5Z" fill="black"/>
</svg>
