<svg width="36" height="36" viewBox="0 0 36 36" fill="none" xmlns="http://www.w3.org/2000/svg">
<path d="M34.5 5.53846H27V4.15385C26.9951 3.05358 26.5194 1.99968 25.6765 1.22167C24.8337 0.443655 23.692 0.00455602 22.5 0H13.5C12.308 0.00455602 11.1663 0.443655 10.3235 1.22167C9.48063 1.99968 9.00494 3.05358 9 4.15385V5.53846H1.5C1.10218 5.53846 0.720645 5.68434 0.43934 5.94401C0.158036 6.20367 0 6.55585 0 6.92308C0 7.2903 0.158036 7.64248 0.43934 7.90215C0.720645 8.16181 1.10218 8.30769 1.5 8.30769H3V33.2308C3 33.9652 3.31607 34.6696 3.87868 35.1889C4.44129 35.7082 5.20435 36 6 36H30C30.7956 36 31.5587 35.7082 32.1213 35.1889C32.6839 34.6696 33 33.9652 33 33.2308V8.30769H34.5C34.8978 8.30769 35.2794 8.16181 35.5607 7.90215C35.842 7.64248 36 7.2903 36 6.92308C36 6.55585 35.842 6.20367 35.5607 5.94401C35.2794 5.68434 34.8978 5.53846 34.5 5.53846ZM12 4.15385C12 3.78662 12.158 3.43444 12.4393 3.17478C12.7206 2.91511 13.1022 2.76923 13.5 2.76923H22.5C22.8978 2.76923 23.2794 2.91511 23.5607 3.17478C23.842 3.43444 24 3.78662 24 4.15385V5.53846H12V4.15385ZM30 33.2308H6V8.30769H30V33.2308ZM15 15.2308V26.3077C15 26.6749 14.842 27.0271 14.5607 27.2868C14.2794 27.5464 13.8978 27.6923 13.5 27.6923C13.1022 27.6923 12.7206 27.5464 12.4393 27.2868C12.158 27.0271 12 26.6749 12 26.3077V15.2308C12 14.8635 12.158 14.5114 12.4393 14.2517C12.7206 13.992 13.1022 13.8462 13.5 13.8462C13.8978 13.8462 14.2794 13.992 14.5607 14.2517C14.842 14.5114 15 14.8635 15 15.2308V15.2308ZM24 15.2308V26.3077C24 26.6749 23.842 27.0271 23.5607 27.2868C23.2794 27.5464 22.8978 27.6923 22.5 27.6923C22.1022 27.6923 21.7206 27.5464 21.4393 27.2868C21.158 27.0271 21 26.6749 21 26.3077V15.2308C21 14.8635 21.158 14.5114 21.4393 14.2517C21.7206 13.992 22.1022 13.8462 22.5 13.8462C22.8978 13.8462 23.2794 13.992 23.5607 14.2517C23.842 14.5114 24 14.8635 24 15.2308V15.2308Z" fill="#26415F"/>
</svg>
