<svg width="32" height="23" viewBox="0 0 32 23" fill="none" xmlns="http://www.w3.org/2000/svg">
<path d="M3.375 0C1.52438 0 0 1.52438 0 3.375V19.125C0 20.9756 1.52438 22.5 3.375 22.5H28.125C29.9756 22.5 31.5 20.9756 31.5 19.125V3.375C31.5 1.52438 29.9756 0 28.125 0H3.375ZM3.375 2.25H28.125C28.7617 2.25 29.25 2.73825 29.25 3.375V19.125C29.25 19.7617 28.7617 20.25 28.125 20.25H3.375C2.73825 20.25 2.25 19.7617 2.25 19.125V3.375C2.25 2.73825 2.73825 2.25 3.375 2.25ZM19.5818 7.17188C17.415 7.17188 16.2776 8.24063 16.2776 9.59738C16.2776 12.0499 19.1599 11.7124 19.1599 12.9724C19.1599 13.1884 18.9799 13.6755 17.7896 13.6755C16.5971 13.6755 15.8209 13.2536 15.8209 13.2536L15.4688 14.8714C15.4688 14.8714 16.2067 15.3281 17.6839 15.3281C19.1599 15.3281 21.2344 14.1941 21.2344 12.5505C21.2344 10.5728 18.351 10.4411 18.351 9.5625C18.351 9.11475 18.7335 8.75363 19.7573 8.75363C20.4255 8.75363 21.1635 9.28125 21.1635 9.28125L21.5156 7.55887C21.5156 7.55887 20.5358 7.17188 19.5818 7.17188V7.17188ZM10.3365 7.3125L8.4375 12.8677C8.4375 12.8677 8.34075 12.3885 8.29688 12.0938C7.22475 9.68625 5.48438 8.7885 5.48438 8.7885L7.137 15.0818H9.387L12.5505 7.3125H10.3365ZM13.3594 7.3125L12.1286 15.0818H14.2031L15.4339 7.3125H13.3594ZM24.5396 7.3125L21.1646 15.0818H23.2031L23.625 13.9927H26.2271L26.4375 15.0818H28.3005L26.7188 7.3125H24.5396ZM3.19837 7.34738C3.19837 7.34738 7.24613 8.58712 8.19113 11.637L7.488 8.12137C7.488 8.12137 7.18088 7.34738 6.363 7.34738H3.19837ZM25.3125 9.5625L25.9099 12.4807H24.2224L25.3125 9.5625Z" fill="black"/>
</svg>
