<svg width="16" height="18" viewBox="0 0 16 18" fill="none" xmlns="http://www.w3.org/2000/svg">
<path d="M15.1111 17.7778H0.888889C0.653141 17.7778 0.427049 17.6841 0.260349 17.5174C0.0936505 17.3507 0 17.1246 0 16.8889V0.888889C0 0.653141 0.0936505 0.427048 0.260349 0.260349C0.427049 0.0936505 0.653141 0 0.888889 0H15.1111C15.3469 0 15.573 0.0936505 15.7397 0.260349C15.9064 0.427048 16 0.653141 16 0.888889V16.8889C16 17.1246 15.9064 17.3507 15.7397 17.5174C15.573 17.6841 15.3469 17.7778 15.1111 17.7778ZM14.2222 16V1.77778H1.77778V16H8H14.2222ZM5.33333 3.55556V5.33333C5.33333 6.04058 5.61429 6.71885 6.11438 7.21895C6.61448 7.71905 7.29276 8 8 8C8.70724 8 9.38552 7.71905 9.88562 7.21895C10.3857 6.71885 10.6667 6.04058 10.6667 5.33333V3.55556H12.4444V5.33333C12.4444 6.51207 11.9762 7.64253 11.1427 8.47603C10.3092 9.30952 9.17874 9.77778 8 9.77778C6.82126 9.77778 5.6908 9.30952 4.8573 8.47603C4.02381 7.64253 3.55556 6.51207 3.55556 5.33333V3.55556H5.33333Z" fill="#FC870B"/>
<g clip-path="url(#clip0_581_914)">
<path d="M7.37008 10.3977L6.4449 10.4939L5.66772 11.4931V12.0483L6.25985 12.6996L6.9408 12.559L7.45892 12.6626L7.3479 13.0623L7.70317 13.7062L7.52554 14.1577L7.94487 15.3826L8.50995 15.2902L9.02808 14.7055L9.07247 14.2984L9.40555 14.0467L9.33892 13.3139L10.2199 12.1864L9.672 12.2629L8.83562 10.8048L7.51812 10.716L7.37009 10.3977L7.37008 10.3977ZM10.0295 13.768L9.87769 13.9878L9.73639 13.993C9.61152 14.2493 9.60362 14.3937 9.58983 14.6943L9.77302 14.7415L10.0033 14.1919L10.0295 13.768V13.768Z" fill="black"/>
</g>
<defs>
<clipPath id="clip0_581_914">
<rect width="5.39578" height="5.39578" fill="white" transform="translate(5.24585 10.1921)"/>
</clipPath>
</defs>
</svg>
