<svg width="151" height="39" viewBox="0 0 151 39" fill="none" xmlns="http://www.w3.org/2000/svg">
<path d="M19.2509 1.20312C9.28373 1.20312 1.20312 9.28313 1.20312 19.2509C1.20312 29.2187 9.28373 37.2987 19.2509 37.2987C29.2181 37.2987 37.2987 29.2181 37.2987 19.2509C37.2987 9.28313 29.2181 1.20312 19.2509 1.20312ZM24.637 26.8779C23.4043 27.9319 21.6633 28.4583 19.4128 28.4583C17.1147 28.4583 15.3063 27.9391 13.99 26.9014C12.6731 25.8624 12.015 24.4361 12.015 22.6199H15.4964C15.6095 23.4176 15.8315 24.0131 16.1611 24.4084C16.7664 25.1273 17.8017 25.4858 19.269 25.4858C20.1479 25.4858 20.8608 25.392 21.4089 25.2013C22.4496 24.8379 22.9694 24.1635 22.9694 23.1769C22.9694 22.6012 22.7143 22.1548 22.2054 21.8384C21.6952 21.5304 20.8873 21.2578 19.7815 21.022L17.8919 20.6075C16.0342 20.196 14.7582 19.7509 14.064 19.2696C12.8867 18.464 12.2989 17.2049 12.2989 15.4916C12.2989 13.928 12.8746 12.6298 14.0249 11.5957C15.1751 10.5609 16.8662 10.0441 19.0963 10.0441C20.9589 10.0441 22.5459 10.5314 23.8621 11.5066C25.176 12.4818 25.8655 13.8974 25.9304 15.7527H22.4243C22.36 14.7029 21.8907 13.9569 21.0166 13.5141C20.4337 13.2224 19.7087 13.0756 18.8431 13.0756C17.8793 13.0756 17.1111 13.2651 16.5365 13.6441C15.962 14.0231 15.6739 14.5519 15.6739 15.2311C15.6739 15.8549 15.9572 16.3206 16.5245 16.628C16.8879 16.8337 17.6609 17.0744 18.8437 17.3505L21.907 18.073C23.2485 18.3882 24.2556 18.8112 24.9258 19.3394C25.9659 20.1605 26.4863 21.3493 26.4863 22.9038C26.4863 24.4986 25.8709 25.8239 24.637 26.8779" fill="#FB8C00"/>
<path d="M57.1574 13.1051C55.7124 13.1051 54.5597 13.6381 53.6995 14.7035C52.8392 15.769 52.4084 17.285 52.4084 19.2516C52.4084 21.2176 52.8398 22.733 53.6995 23.799C54.5591 24.8651 55.7124 25.3975 57.1574 25.3975C58.6025 25.3975 59.7497 24.8645 60.5979 23.799C61.4462 22.7336 61.8703 21.2176 61.8703 19.2516C61.8703 17.2934 61.4462 15.7798 60.5979 14.7096C59.7497 13.6393 58.6025 13.1051 57.1574 13.1051" fill="#FB8C00"/>
<path d="M57.1513 1.20312C47.1841 1.20312 39.1035 9.28373 39.1035 19.2509C39.1035 29.2181 47.1841 37.2987 57.1513 37.2987C67.1185 37.2987 75.1991 29.2181 75.1991 19.2509C75.1991 9.28373 67.1185 1.20312 57.1513 1.20312ZM62.8773 26.4514C61.5592 27.8098 59.6521 28.4884 57.1573 28.4884C54.6625 28.4884 52.7561 27.8098 51.4374 26.4514C49.6693 24.7856 48.7844 22.3852 48.7844 19.2515C48.7844 16.0541 49.6693 13.6537 51.4374 12.0511C52.7555 10.6927 54.6625 10.0135 57.1573 10.0135C59.6521 10.0135 61.5586 10.6927 62.8773 12.0511C64.6388 13.6537 65.5189 16.0535 65.5189 19.2515C65.5183 22.3852 64.6382 24.7856 62.8773 26.4514" fill="#FB8C00"/>
<path d="M132.958 13.1052C131.513 13.1052 130.361 13.6382 129.5 14.7037C128.64 15.7691 128.209 17.2851 128.209 19.2517C128.209 21.2177 128.641 22.7331 129.5 23.7992C130.36 24.8652 131.513 25.3976 132.958 25.3976C134.403 25.3976 135.55 24.8646 136.399 23.7992C137.247 22.7337 137.671 21.2177 137.671 19.2517C137.671 17.2935 137.247 15.7799 136.399 14.7097C135.55 13.6394 134.403 13.1052 132.958 13.1052" fill="#FB8C00"/>
<path d="M132.952 1.20312C122.985 1.20312 114.904 9.28373 114.904 19.2509C114.904 29.2181 122.985 37.2987 132.952 37.2987C142.919 37.2987 151 29.2181 151 19.2509C151 9.28373 142.919 1.20312 132.952 1.20312ZM138.678 26.4514C137.36 27.8098 135.453 28.4884 132.958 28.4884C130.463 28.4884 128.557 27.8098 127.238 26.4514C125.47 24.7856 124.585 22.3852 124.585 19.2515C124.585 16.0541 125.47 13.6537 127.238 12.0511C128.556 10.6927 130.463 10.0135 132.958 10.0135C135.453 10.0135 137.359 10.6927 138.678 12.0511C140.44 13.6537 141.32 16.0535 141.32 19.2515C141.319 22.3852 140.439 24.7856 138.678 26.4514" fill="#FB8C00"/>
<path d="M95.0517 1.20312C85.0845 1.20312 77.0039 9.28373 77.0039 19.2509C77.0039 29.2181 85.0845 37.2987 95.0517 37.2987C105.019 37.2987 113.1 29.2181 113.1 19.2509C113.1 9.28373 105.019 1.20312 95.0517 1.20312ZM98.6709 27.9789L93.2933 20.3591L91.5354 22.1404V27.9789H87.9481V10.523H91.5354V17.7151L98.2799 10.523H102.994L95.8296 17.7024L103.36 27.9789H98.6709" fill="#FB8C00"/>
</svg>
