<svg width="24" height="24" viewBox="0 0 24 24" fill="none" xmlns="http://www.w3.org/2000/svg">
<path d="M12.0001 21.2062C11.5019 21.2081 11.0232 21.0126 10.6688 20.6625L2.8782 12.8718C2.30274 12.2948 1.85066 11.6067 1.54948 10.8494C1.24829 10.0921 1.10428 9.28151 1.1262 8.46684C1.14812 7.65217 1.33552 6.85047 1.677 6.11049C2.01848 5.37052 2.50691 4.70774 3.11257 4.16245C3.69624 3.6414 4.37894 3.24335 5.1199 2.99207C5.86086 2.74079 6.64486 2.64144 7.42507 2.69995C8.98488 2.8033 10.4541 3.4696 11.5594 4.57495L12.0001 5.01558L12.6282 4.37808C13.2053 3.80261 13.8934 3.35054 14.6506 3.04935C15.4079 2.74816 16.2185 2.60415 17.0332 2.62608C17.8479 2.648 18.6496 2.8354 19.3895 3.17688C20.1295 3.51836 20.7923 4.00679 21.3376 4.61245C21.8586 5.19612 22.2567 5.87882 22.508 6.61978C22.7592 7.36073 22.8586 8.14474 22.8001 8.92495C22.6967 10.4848 22.0304 11.9539 20.9251 13.0593L13.3219 20.6625C13.1485 20.8359 12.9423 20.9733 12.7154 21.0667C12.4886 21.16 12.2454 21.2074 12.0001 21.2062V21.2062ZM7.03132 4.94058C6.14554 4.9284 5.28684 5.24582 4.62195 5.8312C4.24188 6.17134 3.9352 6.58543 3.72065 7.04815C3.50611 7.51087 3.38821 8.01249 3.37417 8.52234C3.36013 9.03219 3.45024 9.53954 3.63899 10.0134C3.82775 10.4872 4.11118 10.9175 4.47195 11.2781L12.0001 18.8062L19.3313 11.475C20.8219 9.97495 20.9719 7.57495 19.6688 6.12183C19.3287 5.74176 18.9146 5.43508 18.4519 5.22053C17.9892 5.00598 17.4875 4.88808 16.9777 4.87404C16.4678 4.86 15.9605 4.95012 15.4867 5.13887C15.0128 5.32763 14.5825 5.61106 14.2219 5.97183L12.7969 7.39683C12.6924 7.50171 12.5682 7.58492 12.4315 7.6417C12.2947 7.69848 12.1481 7.72771 12.0001 7.72771C11.852 7.72771 11.7054 7.69848 11.5687 7.6417C11.4319 7.58492 11.3077 7.50171 11.2032 7.39683L9.9657 6.1687C9.58159 5.7808 9.12463 5.47261 8.62105 5.26185C8.11748 5.05109 7.57722 4.94191 7.03132 4.94058V4.94058Z" fill="black"/>
</svg>
