<svg width="24" height="24" viewBox="0 0 24 24" fill="none" xmlns="http://www.w3.org/2000/svg">
<path d="M12 6.75C12.6213 6.75 13.125 6.24632 13.125 5.625C13.125 5.00368 12.6213 4.5 12 4.5C11.3787 4.5 10.875 5.00368 10.875 5.625C10.875 6.24632 11.3787 6.75 12 6.75Z" fill="black"/>
<path d="M16.5 1.5H7.5C6.90402 1.50247 6.33316 1.74031 5.91174 2.16174C5.49031 2.58316 5.25247 3.15402 5.25 3.75V20.25C5.25247 20.846 5.49031 21.4168 5.91174 21.8383C6.33316 22.2597 6.90402 22.4975 7.5 22.5H16.5C17.096 22.4975 17.6668 22.2597 18.0883 21.8383C18.5097 21.4168 18.7475 20.846 18.75 20.25V3.75C18.7475 3.15402 18.5097 2.58316 18.0883 2.16174C17.6668 1.74031 17.096 1.50247 16.5 1.5V1.5ZM17.25 20.25C17.25 20.4489 17.171 20.6397 17.0303 20.7803C16.8897 20.921 16.6989 21 16.5 21H7.5C7.30109 21 7.11032 20.921 6.96967 20.7803C6.82902 20.6397 6.75 20.4489 6.75 20.25V3.75C6.75 3.55109 6.82902 3.36032 6.96967 3.21967C7.11032 3.07902 7.30109 3 7.5 3H16.5C16.6989 3 16.8897 3.07902 17.0303 3.21967C17.171 3.36032 17.25 3.55109 17.25 3.75V20.25Z" fill="black"/>
</svg>
