<svg width="20" height="26" viewBox="0 0 20 26" fill="none" xmlns="http://www.w3.org/2000/svg">
<path d="M19.6096 19.4957L17.9092 17.7952V11.2044C17.9092 7.15763 15.7474 3.76995 11.9775 2.8736V1.97725C11.9775 0.88317 11.0943 0 10.0002 0C8.90615 0 8.02298 0.88317 8.02298 1.97725V2.8736C4.23985 3.76995 2.09124 7.14445 2.09124 11.2044V17.7952L0.390806 19.4957C-0.439638 20.3261 0.140354 21.7497 1.31352 21.7497H18.6737C19.8601 21.7497 20.4401 20.3261 19.6096 19.4957ZM15.2729 19.1134H4.72757V11.2044C4.72757 7.93535 6.718 5.27266 10.0002 5.27266C13.2825 5.27266 15.2729 7.93535 15.2729 11.2044V19.1134ZM10.0002 25.7042C11.4502 25.7042 12.6366 24.5179 12.6366 23.0679H7.3639C7.3639 23.7671 7.64165 24.4376 8.13606 24.932C8.63047 25.4265 9.30103 25.7042 10.0002 25.7042Z" fill="#CDD2D8"/>
</svg>
