<svg width="26" height="26" viewBox="0 0 26 26" fill="none" xmlns="http://www.w3.org/2000/svg">
<path d="M25 12.2512L13.6534 22.9525C12.2633 24.2635 10.378 25 8.41216 25C6.44633 25 4.56102 24.2635 3.17097 22.9525C1.78092 21.6415 1 19.8634 1 18.0094C1 16.1554 1.78092 14.3773 3.17097 13.0663L14.5176 2.365C15.4443 1.491 16.7012 1 18.0117 1C19.3223 1 20.5792 1.491 21.5059 2.365C22.4326 3.23899 22.9532 4.42438 22.9532 5.6604C22.9532 6.89641 22.4326 8.0818 21.5059 8.95579L10.1469 19.6571C9.91745 19.8735 9.64508 20.0451 9.34532 20.1622C9.04556 20.2793 8.72427 20.3396 8.39981 20.3396C8.07536 20.3396 7.75407 20.2793 7.45431 20.1622C7.15455 20.0451 6.88218 19.8735 6.65275 19.6571C6.42332 19.4407 6.24133 19.1838 6.11717 18.9011C5.993 18.6184 5.92909 18.3154 5.92909 18.0094C5.92909 17.7034 5.993 17.4004 6.11717 17.1177C6.24133 16.835 6.42332 16.5781 6.65275 16.3617L17.1351 6.48716" stroke="black" stroke-width="1.5" stroke-linecap="round" stroke-linejoin="round"/>
</svg>
