<svg width="23" height="22" viewBox="0 0 23 22" fill="none" xmlns="http://www.w3.org/2000/svg">
<path d="M8.30156 11C7.43906 11 6.72031 10.6906 6.14531 10.0719C5.57031 9.45312 5.34271 8.73125 5.4625 7.90625L5.92969 4.5375C6.12135 3.23125 6.74427 2.14867 7.79844 1.28975C8.8526 0.429917 10.0865 0 11.5 0C12.9135 0 14.1474 0.429917 15.2016 1.28975C16.2557 2.14867 16.8786 3.23125 17.0703 4.5375L17.5375 7.90625C17.6573 8.73125 17.4297 9.45312 16.8547 10.0719C16.2797 10.6906 15.5609 11 14.6984 11H8.30156ZM8.30156 8.25H14.6984L14.2312 4.95C14.1354 4.30833 13.8302 3.78125 13.3156 3.36875C12.8 2.95625 12.1948 2.75 11.5 2.75C10.8052 2.75 10.2005 2.95625 9.68587 3.36875C9.17029 3.78125 8.86458 4.30833 8.76875 4.95L8.30156 8.25ZM2.875 22C2.08437 22 1.40779 21.731 0.84525 21.1929C0.28175 20.6539 0 20.0063 0 19.25V18.15C0 17.3708 0.209875 16.6545 0.629625 16.0009C1.04842 15.3482 1.60521 14.85 2.3 14.5063C3.78542 13.7958 5.29479 13.2628 6.82812 12.9071C8.36146 12.5524 9.91875 12.375 11.5 12.375C13.0813 12.375 14.6385 12.5524 16.1719 12.9071C17.7052 13.2628 19.2146 13.7958 20.7 14.5063C21.3948 14.85 21.9516 15.3482 22.3704 16.0009C22.7901 16.6545 23 17.3708 23 18.15V19.25C23 20.0063 22.7187 20.6539 22.1562 21.1929C21.5927 21.731 20.9156 22 20.125 22H2.875ZM2.875 19.25H20.125V18.15C20.125 17.8979 20.0594 17.6688 19.9281 17.4625C19.7958 17.2563 19.6219 17.0958 19.4062 16.9813C18.1125 16.3625 16.8068 15.8982 15.4891 15.5884C14.1714 15.2795 12.8417 15.125 11.5 15.125C10.1583 15.125 8.82865 15.2795 7.51094 15.5884C6.19323 15.8982 4.8875 16.3625 3.59375 16.9813C3.37812 17.0958 3.20467 17.2563 3.07338 17.4625C2.94113 17.6688 2.875 17.8979 2.875 18.15V19.25Z" fill="#CDD2D8"/>
</svg>
