<svg width="36" height="36" viewBox="0 0 36 36" fill="none" xmlns="http://www.w3.org/2000/svg">
<path d="M16.5 13.5H19.5V9H24V6H19.5V1.5H16.5V6H12V9H16.5V13.5ZM10.5 27C8.85 27 7.515 28.35 7.515 30C7.515 31.65 8.85 33 10.5 33C12.15 33 13.5 31.65 13.5 30C13.5 28.35 12.15 27 10.5 27ZM25.5 27C23.85 27 22.515 28.35 22.515 30C22.515 31.65 23.85 33 25.5 33C27.15 33 28.5 31.65 28.5 30C28.5 28.35 27.15 27 25.5 27ZM12.15 19.5H23.325C24.45 19.5 25.44 18.885 25.95 17.955L31.74 7.44L29.13 6L23.325 16.5H12.795L6.405 3H1.5V6H4.5L9.9 17.385L7.875 21.045C6.78 23.055 8.22 25.5 10.5 25.5H28.5V22.5H10.5L12.15 19.5Z" fill="black"/>
</svg>
