<svg width="36" height="24" viewBox="0 0 36 24" fill="none" xmlns="http://www.w3.org/2000/svg">
<path d="M0 0H36V24H0V0ZM18 6C19.5913 6 21.1174 6.63214 22.2426 7.75736C23.3679 8.88258 24 10.4087 24 12C24 13.5913 23.3679 15.1174 22.2426 16.2426C21.1174 17.3679 19.5913 18 18 18C16.4087 18 14.8826 17.3679 13.7574 16.2426C12.6321 15.1174 12 13.5913 12 12C12 10.4087 12.6321 8.88258 13.7574 7.75736C14.8826 6.63214 16.4087 6 18 6M8 4C8 5.06087 7.57857 6.07828 6.82843 6.82843C6.07828 7.57857 5.06087 8 4 8V16C5.06087 16 6.07828 16.4214 6.82843 17.1716C7.57857 17.9217 8 18.9391 8 20H28C28 18.9391 28.4214 17.9217 29.1716 17.1716C29.9217 16.4214 30.9391 16 32 16V8C30.9391 8 29.9217 7.57857 29.1716 6.82843C28.4214 6.07828 28 5.06087 28 4H8Z" fill="black"/>
</svg>
