<svg width="36" height="36" viewBox="0 0 36 36" fill="none" xmlns="http://www.w3.org/2000/svg">
<path d="M16.5 16.5L4.5 9V24H19.5V27H4.5C3.675 27 2.969 26.7065 2.382 26.1195C1.794 25.5315 1.5 24.825 1.5 24V6C1.5 5.175 1.794 4.4685 2.382 3.8805C2.969 3.2935 3.675 3 4.5 3H28.5C29.325 3 30.0315 3.2935 30.6195 3.8805C31.2065 4.4685 31.5 5.175 31.5 6V13.5H28.5V9L16.5 16.5ZM16.5 13.5L28.5 6H4.5L16.5 13.5ZM28.5 33C26.85 33 25.4375 32.4125 24.2625 31.2375C23.0875 30.0625 22.5 28.65 22.5 27V20.25C22.5 19.2 22.8625 18.3125 23.5875 17.5875C24.3125 16.8625 25.2 16.5 26.25 16.5C27.3 16.5 28.1875 16.8625 28.9125 17.5875C29.6375 18.3125 30 19.2 30 20.25V27H27V20.25C27 20.05 26.925 19.875 26.775 19.725C26.625 19.575 26.45 19.5 26.25 19.5C26.05 19.5 25.875 19.575 25.725 19.725C25.575 19.875 25.5 20.05 25.5 20.25V27C25.5 27.825 25.7935 28.5315 26.3805 29.1195C26.9685 29.7065 27.675 30 28.5 30C29.325 30 30.0315 29.7065 30.6195 29.1195C31.2065 28.5315 31.5 27.825 31.5 27V21H34.5V27C34.5 28.65 33.9125 30.0625 32.7375 31.2375C31.5625 32.4125 30.15 33 28.5 33ZM4.5 9V6V24V15V9Z" fill="black"/>
</svg>
