<svg width="36" height="36" viewBox="0 0 36 36" fill="none" xmlns="http://www.w3.org/2000/svg">
<path d="M18.0001 31.8095C17.2528 31.8123 16.5349 31.519 16.0032 30.9939L4.3173 19.3079C3.4541 18.4423 2.776 17.4102 2.32421 16.2743C1.87243 15.1384 1.65641 13.9224 1.6893 12.7004C1.72218 11.4784 2.00328 10.2759 2.5155 9.16592C3.02772 8.05597 3.76036 7.06179 4.66886 6.24386C5.54436 5.46229 6.56842 4.86521 7.67985 4.48829C8.79128 4.11137 9.96729 3.96234 11.1376 4.05011C13.4773 4.20513 15.6811 5.20458 17.3392 6.86261L18.0001 7.52355L18.9423 6.5673C19.8079 5.7041 20.84 5.026 21.9759 4.57421C23.1118 4.12243 24.3278 3.90641 25.5498 3.9393C26.7718 3.97218 27.9743 4.25328 29.0843 4.7655C30.1943 5.27772 31.1884 6.01036 32.0064 6.91886C32.7879 7.79436 33.385 8.81842 33.7619 9.92985C34.1389 11.0413 34.2879 12.2173 34.2001 13.3876C34.0451 15.7273 33.0456 17.9311 31.3876 19.5892L19.9829 30.9939C19.7227 31.2541 19.4135 31.4602 19.0732 31.6002C18.7328 31.7402 18.3681 31.8113 18.0001 31.8095V31.8095ZM10.547 7.41105C9.21831 7.39279 7.93027 7.86892 6.93292 8.74698C6.36283 9.25719 5.9028 9.87832 5.58098 10.5724C5.25916 11.2665 5.08231 12.0189 5.06125 12.7837C5.04019 13.5485 5.17536 14.3095 5.45849 15.0202C5.74162 15.731 6.16677 16.3765 6.70792 16.9173L18.0001 28.2095L28.997 17.2126C31.2329 14.9626 31.4579 11.3626 29.5032 9.18292C28.993 8.61283 28.3719 8.1528 27.6778 7.83098C26.9837 7.50916 26.2313 7.33231 25.4665 7.31125C24.7018 7.29019 23.9407 7.42536 23.23 7.70849C22.5192 7.99162 21.8737 8.41677 21.3329 8.95792L19.1954 11.0954C19.0386 11.2527 18.8524 11.3776 18.6472 11.4627C18.4421 11.5479 18.2222 11.5918 18.0001 11.5918C17.778 11.5918 17.5581 11.5479 17.353 11.4627C17.1479 11.3776 16.9616 11.2527 16.8048 11.0954L14.9485 9.25324C14.3724 8.67138 13.6869 8.2091 12.9316 7.89295C12.1762 7.57681 11.3658 7.41304 10.547 7.41105V7.41105Z" fill="#CDD2D8"/>
</svg>
