<svg width="36" height="36" viewBox="0 0 36 36" fill="none" xmlns="http://www.w3.org/2000/svg">
<path d="M18 11.5312C16.7206 11.5312 15.4699 11.9106 14.4062 12.6214C13.3424 13.3322 12.5133 14.3425 12.0237 15.5245C11.534 16.7065 11.4059 18.0072 11.6555 19.262C11.9051 20.5168 12.5212 21.6694 13.4259 22.5741C14.3306 23.4788 15.4832 24.0949 16.738 24.3445C17.9928 24.5941 19.2935 24.466 20.4755 23.9763C21.6575 23.4867 22.6678 22.6576 23.3786 21.5938C24.0894 20.5301 24.4688 19.2794 24.4688 18C24.4687 16.2844 23.7872 14.639 22.5741 13.4259C21.361 12.2128 19.7156 11.5312 18 11.5312V11.5312ZM18 21.0938C17.3881 21.0938 16.79 20.9123 16.2812 20.5724C15.7724 20.2324 15.3759 19.7492 15.1417 19.1839C14.9076 18.6186 14.8463 17.9966 14.9657 17.3964C15.0851 16.7963 15.3797 16.2451 15.8124 15.8124C16.2451 15.3797 16.7963 15.0851 17.3964 14.9657C17.9966 14.8463 18.6186 14.9076 19.1839 15.1417C19.7492 15.3759 20.2324 15.7724 20.5724 16.2812C20.9123 16.79 21.0938 17.3881 21.0938 18C21.0901 18.8194 20.7629 19.6041 20.1835 20.1835C19.6041 20.7629 18.8194 21.0901 18 21.0938ZM24.75 2.8125H11.25C9.01224 2.8125 6.86612 3.70145 5.28379 5.28379C3.70145 6.86612 2.8125 9.01224 2.8125 11.25V24.75C2.8125 26.9878 3.70145 29.1339 5.28379 30.7162C6.86612 32.2986 9.01224 33.1875 11.25 33.1875H24.75C26.9878 33.1875 29.1339 32.2986 30.7162 30.7162C32.2986 29.1339 33.1875 26.9878 33.1875 24.75V11.25C33.1875 9.01224 32.2986 6.86612 30.7162 5.28379C29.1339 3.70145 26.9878 2.8125 24.75 2.8125V2.8125ZM29.8125 24.75C29.8125 26.0927 29.2791 27.3803 28.3297 28.3297C27.3803 29.2791 26.0927 29.8125 24.75 29.8125H11.25C9.90734 29.8125 8.61967 29.2791 7.67027 28.3297C6.72087 27.3803 6.1875 26.0927 6.1875 24.75V11.25C6.1875 9.90734 6.72087 8.61967 7.67027 7.67027C8.61967 6.72087 9.90734 6.1875 11.25 6.1875H24.75C26.0927 6.1875 27.3803 6.72087 28.3297 7.67027C29.2791 8.61967 29.8125 9.90734 29.8125 11.25V24.75ZM27.5625 10.6875C27.5625 11.1325 27.4305 11.5675 27.1833 11.9375C26.9361 12.3075 26.5847 12.5959 26.1735 12.7662C25.7624 12.9365 25.31 12.9811 24.8735 12.8943C24.4371 12.8075 24.0362 12.5932 23.7215 12.2785C23.4068 11.9638 23.1925 11.5629 23.1057 11.1265C23.0189 10.69 23.0635 10.2376 23.2338 9.82646C23.4041 9.41533 23.6925 9.06393 24.0625 8.81669C24.4325 8.56946 24.8675 8.4375 25.3125 8.4375C25.9092 8.4375 26.4815 8.67455 26.9035 9.09651C27.3254 9.51847 27.5625 10.0908 27.5625 10.6875Z" fill="white"/>
</svg>
