<svg width="36" height="23" viewBox="0 0 36 23" fill="none" xmlns="http://www.w3.org/2000/svg">
<path d="M1.67512 3.62549e-05C0.750276 3.62549e-05 0 0.749917 0 1.67515V20.933C0 21.858 0.750384 22.608 1.67512 22.608H34.3249C35.2498 22.608 36 21.8582 36 20.9329V1.67512C36 0.750024 35.2496 0 34.3249 0H1.67508L1.67512 3.62549e-05ZM11.8046 2.72142C13.8595 2.72142 15.7468 3.43634 17.2282 4.63054C15.9818 5.74578 15.0522 7.21102 14.5935 8.8718H15.3124C15.7357 7.50172 16.5048 6.28189 17.5185 5.31454C18.5322 6.28189 19.3012 7.50172 19.7246 8.8718H20.4548C19.9897 7.21976 19.0588 5.76328 17.8133 4.6553C19.2975 3.44596 21.1922 2.72138 23.256 2.72138C28.0185 2.72138 31.8791 6.58246 31.8791 11.3457C31.8791 16.1088 28.0185 19.9699 23.256 19.9699C21.1579 19.9699 19.2341 19.221 17.739 17.9753C19.0764 16.8117 20.0624 15.252 20.5133 13.4775H19.8101C19.4097 14.9669 18.6039 16.2915 17.5185 17.3273C16.4331 16.2915 15.6284 14.9669 15.228 13.4775H14.5586C15.0121 15.2263 15.9852 16.7642 17.3025 17.9168C15.8101 19.1471 13.8938 19.8867 11.8046 19.8867C7.04214 19.8867 3.1815 16.0442 3.1815 11.304C3.1815 6.56392 7.04214 2.72142 11.8046 2.72142V2.72142ZM22.6091 8.78404C21.573 8.78404 20.565 9.68987 20.565 11.3907C20.565 12.5185 21.1095 13.2627 22.1805 13.2627C22.4833 13.2628 22.9658 13.1389 22.9658 13.1389L23.1255 12.1534C23.1255 12.1534 22.6852 12.3762 22.383 12.3762C21.7463 12.3762 21.4909 11.8865 21.4909 11.3603C21.4909 10.2928 22.0387 9.70538 22.6485 9.70538C23.1058 9.70538 23.4731 9.96415 23.4731 9.96415L23.6194 9.00565C23.6194 9.00565 23.0756 8.78404 22.6091 8.78404H22.6091ZM31.32 8.8673L30.4189 8.86954L30.2254 10.0553C30.2254 10.0553 29.8866 9.59515 29.3569 9.59515C28.5332 9.59515 27.8471 10.5736 27.8471 11.6989C27.8471 12.4253 28.2123 13.1378 28.9609 13.1378C29.4994 13.1378 29.7979 12.7677 29.7979 12.7677L29.7585 13.0838H30.6338L31.32 8.8673ZM5.51023 8.87965L4.7925 13.1063H5.65762L6.20438 9.91919L6.28538 13.1063H6.90412L8.05838 9.91919L7.5465 13.1063H8.46562L9.17438 8.87965H7.75238L6.867 11.4728L6.82088 8.87969H5.51027L5.51023 8.87965ZM14.5485 9.15415C14.529 9.17377 14.0254 12.0776 14.0254 12.4313C14.0254 12.9549 14.3189 13.1888 14.7319 13.185C15.0278 13.1825 15.257 13.1082 15.363 13.077C15.3741 13.074 15.3956 13.068 15.3956 13.068L15.507 12.312C15.4464 12.312 15.3572 12.3379 15.2786 12.3379C14.9703 12.3379 14.9361 12.1739 14.9557 12.0522L15.2044 10.5098H15.6735L15.7871 9.67388H15.345L15.435 9.15415H14.5485V9.15415ZM25.0054 9.57942C24.4016 9.57942 23.9389 9.77854 23.9389 9.77854L23.8106 10.5548C23.8106 10.5548 24.1928 10.3962 24.7703 10.3962C25.0982 10.3962 25.3383 10.4337 25.3383 10.7067C25.3383 10.8725 25.3091 10.9339 25.3091 10.9339C25.3091 10.9339 25.0498 10.9114 24.93 10.9114C24.1685 10.9114 23.3685 11.2451 23.3685 12.249C23.3685 13.04 23.8937 13.221 24.219 13.221C24.8403 13.221 25.1082 12.8083 25.1224 12.807L25.0931 13.1513H25.8683L26.2148 10.6673C26.2149 9.6133 25.3171 9.57938 25.0054 9.57938V9.57942ZM10.4647 9.58392C9.85871 9.58392 9.39373 9.78304 9.39373 9.78304L9.2655 10.5593C9.2655 10.5593 9.6489 10.4007 10.2285 10.4007C10.5576 10.4007 10.7989 10.4383 10.7989 10.7112C10.7989 10.8769 10.7696 10.9384 10.7696 10.9384C10.7696 10.9384 10.5096 10.9159 10.3894 10.9159C9.625 10.9159 8.82227 11.2491 8.82227 12.2524C8.82227 13.043 9.34852 13.2244 9.675 13.2244C10.2986 13.2244 10.5674 12.8116 10.5818 12.8104L10.5525 13.1547H11.331L11.6786 10.6718C11.6786 9.61841 10.7776 9.58388 10.4647 9.58388V9.58392ZM13.2142 9.58392C12.5635 9.58392 11.9025 9.84661 11.9025 10.7438C11.9025 11.7604 13.0039 11.6577 13.0039 12.0859C13.0039 12.3717 12.6965 12.3953 12.4594 12.3953C12.049 12.3953 11.6799 12.2535 11.6786 12.2603L11.5605 13.0365C11.5817 13.0431 11.8103 13.1457 12.5483 13.1457C12.7464 13.1457 13.8791 13.196 13.8791 12.0162C13.8791 10.9131 12.8306 11.1318 12.8306 10.6887C12.8306 10.468 13.0009 10.3984 13.3132 10.3984C13.4373 10.3984 13.9152 10.4378 13.9152 10.4378L14.0254 9.65365C14.0254 9.65376 13.717 9.58392 13.2143 9.58392H13.2142ZM17.2822 9.58392C16.3779 9.5841 15.7084 10.5565 15.7084 11.655C15.7084 12.9229 16.5473 13.2244 17.262 13.2244C17.9217 13.2244 18.2126 13.077 18.2126 13.077L18.3701 12.2119C18.3701 12.2119 17.8682 12.4324 17.415 12.4324C16.4493 12.4324 16.6185 11.7135 16.6185 11.7135H18.4466C18.4466 11.7135 18.5648 11.1326 18.5648 10.8957C18.5648 10.3045 18.2697 9.58392 17.2823 9.58392H17.2822ZM20.5572 9.62104C20.1497 9.62104 19.8472 10.1689 19.8472 10.1689L19.9282 9.66604H19.0822L18.5142 13.1378H19.449C19.7138 11.6553 19.7621 10.4514 20.394 10.6718C20.5046 10.098 20.6119 9.87628 20.7326 9.63342C20.7326 9.63342 20.6759 9.62104 20.5571 9.62104H20.5572ZM28.1317 9.62104C27.7244 9.62104 27.4219 10.1689 27.4219 10.1689L27.5029 9.66604H26.6569L26.0887 13.1378H27.0225C27.2874 11.6553 27.337 10.4514 27.9686 10.6718C28.0794 10.098 28.1866 9.87628 28.3073 9.63342C28.3073 9.63342 28.2505 9.62104 28.1318 9.62104H28.1317ZM17.2777 10.3669C17.7913 10.3669 17.6974 10.9467 17.6974 10.9935H16.686C16.686 10.9337 16.7817 10.3669 17.2778 10.3669H17.2777ZM29.4987 10.4344C29.8255 10.4343 29.9937 10.6551 29.9937 11.1747C29.9937 11.646 29.7559 12.276 29.2635 12.276C28.9367 12.276 28.7831 12.0061 28.7831 11.583C28.7831 10.8912 29.0996 10.4344 29.4986 10.4344H29.4987ZM25.0065 11.6157C25.1398 11.6158 25.1674 11.6288 25.1899 11.6348C25.1866 11.6343 25.186 11.6349 25.1989 11.637C25.2158 11.7917 25.1055 12.5168 24.5722 12.5168C24.2973 12.5168 24.2269 12.2982 24.2269 12.1692C24.2269 11.9176 24.3579 11.6157 25.0065 11.6157ZM10.4659 11.619C10.6173 11.6192 10.6339 11.6361 10.6594 11.6404C10.6763 11.795 10.5656 12.519 10.0305 12.519C9.75449 12.519 9.68288 12.3015 9.68288 12.1725C9.68288 11.9211 9.81464 11.619 10.4659 11.619Z" fill="black"/>
</svg>
