<svg width="36" height="36" viewBox="0 0 36 36" fill="none" xmlns="http://www.w3.org/2000/svg">
<path d="M18 10.125C18.932 10.125 19.6875 9.36948 19.6875 8.4375C19.6875 7.50552 18.932 6.75 18 6.75C17.068 6.75 16.3125 7.50552 16.3125 8.4375C16.3125 9.36948 17.068 10.125 18 10.125Z" fill="black"/>
<path d="M24.75 2.25H11.25C10.356 2.2537 9.49974 2.61047 8.8676 3.2426C8.23547 3.87474 7.8787 4.73103 7.875 5.625V30.375C7.8787 31.269 8.23547 32.1253 8.8676 32.7574C9.49974 33.3895 10.356 33.7463 11.25 33.75H24.75C25.644 33.7463 26.5003 33.3895 27.1324 32.7574C27.7645 32.1253 28.1213 31.269 28.125 30.375V5.625C28.1213 4.73103 27.7645 3.87474 27.1324 3.2426C26.5003 2.61047 25.644 2.2537 24.75 2.25V2.25ZM25.875 30.375C25.875 30.6734 25.7565 30.9595 25.5455 31.1705C25.3345 31.3815 25.0484 31.5 24.75 31.5H11.25C10.9516 31.5 10.6655 31.3815 10.4545 31.1705C10.2435 30.9595 10.125 30.6734 10.125 30.375V5.625C10.125 5.32663 10.2435 5.04048 10.4545 4.82951C10.6655 4.61853 10.9516 4.5 11.25 4.5H24.75C25.0484 4.5 25.3345 4.61853 25.5455 4.82951C25.7565 5.04048 25.875 5.32663 25.875 5.625V30.375Z" fill="black"/>
</svg>
