<svg width="36" height="36" viewBox="0 0 36 36" fill="none" xmlns="http://www.w3.org/2000/svg">
<path d="M17.325 20.9625C17.45 21.2625 17.675 21.4125 18 21.4125C18.325 21.4125 18.55 21.2625 18.675 20.9625L20.325 17.325L23.9625 15.675C24.2625 15.55 24.4125 15.325 24.4125 15C24.4125 14.675 24.2625 14.45 23.9625 14.325L20.325 12.675L18.675 9.0375C18.55 8.7375 18.325 8.5875 18 8.5875C17.675 8.5875 17.45 8.7375 17.325 9.0375L15.675 12.675L12.0375 14.325C11.7375 14.45 11.5875 14.675 11.5875 15C11.5875 15.325 11.7375 15.55 12.0375 15.675L15.675 17.325L17.325 20.9625ZM3 29.3625V6C3 5.175 3.294 4.4685 3.882 3.8805C4.469 3.2935 5.175 3 6 3H30C30.825 3 31.5315 3.2935 32.1195 3.8805C32.7065 4.4685 33 5.175 33 6V24C33 24.825 32.7065 25.5315 32.1195 26.1195C31.5315 26.7065 30.825 27 30 27H9L5.55 30.45C5.075 30.925 4.531 31.031 3.918 30.768C3.306 30.506 3 30.0375 3 29.3625ZM6 25.7625L7.7625 24H30V6H6V25.7625ZM6 6V25.7625V6Z" fill="black"/>
</svg>
