<svg width="200" height="51" viewBox="0 0 200 51" fill="none" xmlns="http://www.w3.org/2000/svg">
<path d="M25.4979 1.59351C12.2963 1.59351 1.59351 12.2955 1.59351 25.4979C1.59351 38.7003 12.2963 49.4023 25.4979 49.4023C38.6995 49.4023 49.4023 38.6995 49.4023 25.4979C49.4023 12.2955 38.6995 1.59351 25.4979 1.59351ZM32.6318 35.5999C30.9991 36.9959 28.6931 37.6931 25.7122 37.6931C22.6684 37.6931 20.2732 37.0055 18.5298 35.631C16.7855 34.2549 15.9138 32.3656 15.9138 29.96H20.525C20.6748 31.0166 20.9688 31.8055 21.4055 32.329C22.2071 33.2812 23.5784 33.7561 25.5218 33.7561C26.6859 33.7561 27.6302 33.6318 28.3561 33.3792C29.7345 32.8979 30.423 32.0047 30.423 30.6979C30.423 29.9353 30.0851 29.3441 29.411 28.925C28.7353 28.517 27.6652 28.1561 26.2007 27.8437L23.6979 27.2947C21.2373 26.7497 19.5473 26.16 18.6278 25.5226C17.0684 24.4557 16.2899 22.7879 16.2899 20.5186C16.2899 18.4477 17.0525 16.7282 18.576 15.3584C20.0995 13.9879 22.3393 13.3035 25.2931 13.3035C27.76 13.3035 29.862 13.9489 31.6055 15.2405C33.3457 16.5322 34.2588 18.4071 34.3449 20.8644H29.7011C29.6158 19.474 28.9943 18.4859 27.8365 17.8995C27.0644 17.513 26.1043 17.3186 24.9577 17.3186C23.6812 17.3186 22.6636 17.5696 21.9027 18.0716C21.1417 18.5736 20.76 19.274 20.76 20.1736C20.76 20.9999 21.1353 21.6166 21.8867 22.0238C22.368 22.2963 23.3919 22.615 24.9584 22.9808L29.0158 23.9377C30.7927 24.3553 32.1266 24.9154 33.0142 25.615C34.3919 26.7027 35.0812 28.2772 35.0812 30.3361C35.0812 32.4485 34.266 34.2039 32.6318 35.5999Z" fill="#FB8C00"/>
<path d="M75.7051 17.3577C73.7911 17.3577 72.2644 18.0636 71.125 19.4748C69.9856 20.886 69.415 22.8939 69.415 25.4987C69.415 28.1027 69.9864 30.1099 71.125 31.5218C72.2636 32.9338 73.7911 33.6389 75.7051 33.6389C77.619 33.6389 79.1385 32.933 80.2621 31.5218C81.3856 30.1107 81.9473 28.1027 81.9473 25.4987C81.9473 22.9051 81.3856 20.9003 80.2621 19.4828C79.1385 18.0652 77.619 17.3577 75.7051 17.3577Z" fill="#FB8C00"/>
<path d="M75.6971 1.59351C62.4955 1.59351 51.7927 12.2963 51.7927 25.4979C51.7927 38.6995 62.4955 49.4023 75.6971 49.4023C88.8987 49.4023 99.6015 38.6995 99.6015 25.4979C99.6015 12.2963 88.8987 1.59351 75.6971 1.59351ZM83.2812 35.0349C81.5354 36.8341 79.0095 37.7329 75.7051 37.7329C72.4007 37.7329 69.8756 36.8341 68.129 35.0349C65.7871 32.8286 64.615 29.6493 64.615 25.4987C64.615 21.2636 65.7871 18.0843 68.129 15.9616C69.8748 14.1624 72.4007 13.2628 75.7051 13.2628C79.0095 13.2628 81.5346 14.1624 83.2812 15.9616C85.6142 18.0843 86.78 21.2628 86.78 25.4987C86.7792 29.6493 85.6134 32.8286 83.2812 35.0349Z" fill="#FB8C00"/>
<path d="M176.104 17.3579C174.19 17.3579 172.663 18.0639 171.523 19.475C170.384 20.8862 169.813 22.8942 169.813 25.4989C169.813 28.1029 170.385 30.1101 171.523 31.5221C172.662 32.934 174.19 33.6392 176.104 33.6392C178.017 33.6392 179.537 32.9332 180.66 31.5221C181.784 30.1109 182.346 28.1029 182.346 25.4989C182.346 22.9053 181.784 20.9005 180.66 19.483C179.537 18.0655 178.017 17.3579 176.104 17.3579Z" fill="#FB8C00"/>
<path d="M176.096 1.59351C162.894 1.59351 152.191 12.2963 152.191 25.4979C152.191 38.6995 162.894 49.4023 176.096 49.4023C189.297 49.4023 200 38.6995 200 25.4979C200 12.2963 189.297 1.59351 176.096 1.59351ZM183.68 35.0349C181.934 36.8341 179.408 37.7329 176.104 37.7329C172.799 37.7329 170.274 36.8341 168.527 35.0349C166.186 32.8286 165.013 29.6493 165.013 25.4987C165.013 21.2636 166.186 18.0843 168.527 15.9616C170.273 14.1624 172.799 13.2628 176.104 13.2628C179.408 13.2628 181.933 14.1624 183.68 15.9616C186.013 18.0843 187.178 21.2628 187.178 25.4987C187.178 29.6493 186.012 32.8286 183.68 35.0349Z" fill="#FB8C00"/>
<path d="M125.896 1.59351C112.695 1.59351 101.992 12.2963 101.992 25.4979C101.992 38.6995 112.695 49.4023 125.896 49.4023C139.098 49.4023 149.801 38.6995 149.801 25.4979C149.801 12.2963 139.098 1.59351 125.896 1.59351ZM130.69 37.058L123.567 26.9656L121.239 29.325V37.058H116.488V13.9377H121.239V23.4636L130.172 13.9377H136.416L126.927 23.4469L136.901 37.058H130.69Z" fill="#FB8C00"/>
</svg>
