<svg width="48" height="54" viewBox="0 0 48 54" fill="none" xmlns="http://www.w3.org/2000/svg">
<path d="M45.3333 53.3333H2.66667C1.95942 53.3333 1.28115 53.0524 0.781048 52.5523C0.280951 52.0522 0 51.3739 0 50.6667V2.66667C0 1.95942 0.280951 1.28115 0.781048 0.781048C1.28115 0.280951 1.95942 0 2.66667 0H45.3333C46.0406 0 46.7189 0.280951 47.219 0.781048C47.719 1.28115 48 1.95942 48 2.66667V50.6667C48 51.3739 47.719 52.0522 47.219 52.5523C46.7189 53.0524 46.0406 53.3333 45.3333 53.3333ZM42.6667 48V5.33333H5.33333V48H24H42.6667ZM16 10.6667V16C16 18.1217 16.8429 20.1566 18.3431 21.6569C19.8434 23.1571 21.8783 24 24 24C26.1217 24 28.1566 23.1571 29.6569 21.6569C31.1571 20.1566 32 18.1217 32 16V10.6667H37.3333V16C37.3333 19.5362 35.9286 22.9276 33.4281 25.4281C30.9276 27.9286 27.5362 29.3333 24 29.3333C20.4638 29.3333 17.0724 27.9286 14.5719 25.4281C12.0714 22.9276 10.6667 19.5362 10.6667 16V10.6667H16Z" fill="#FC870B"/>
<g clip-path="url(#clip0_581_914)">
<path d="M22.11 31.1926L19.3344 31.4813L17.0029 34.4789V36.1443L18.7793 38.0984L20.8222 37.6765L22.3765 37.9873L22.0435 39.1864L23.1093 41.1182L22.5764 42.4727L23.8344 46.1473L25.5296 45.8701L27.084 44.1159L27.2172 42.8946L28.2164 42.1396L28.0165 39.9414L30.6594 36.5586L29.0157 36.7883L26.5066 32.4139L22.5541 32.1475L22.11 31.1927L22.11 31.1926ZM30.0882 41.3034L29.6328 41.9629L29.2089 41.9786C28.8343 42.7475 28.8106 43.1806 28.7692 44.0825L29.3188 44.2239L30.0097 42.5752L30.0882 41.3034V41.3034Z" fill="black"/>
</g>
<defs>
<clipPath id="clip0_581_914">
<rect width="16.1874" height="16.1874" fill="white" transform="translate(15.7375 30.5762)"/>
</clipPath>
</defs>
</svg>
