<svg width="251" height="64" viewBox="0 0 251 64" fill="none" xmlns="http://www.w3.org/2000/svg">
<path d="M32 2C15.432 2 2 15.431 2 32C2 48.569 15.432 62 32 62C48.568 62 62 48.568 62 32C62 15.431 48.568 2 32 2ZM40.953 44.678C38.904 46.43 36.01 47.305 32.269 47.305C28.449 47.305 25.443 46.442 23.255 44.717C21.066 42.99 19.972 40.619 19.972 37.6H25.759C25.947 38.926 26.316 39.916 26.864 40.573C27.87 41.768 29.591 42.364 32.03 42.364C33.491 42.364 34.676 42.208 35.587 41.891C37.317 41.287 38.181 40.166 38.181 38.526C38.181 37.569 37.757 36.827 36.911 36.301C36.063 35.789 34.72 35.336 32.882 34.944L29.741 34.255C26.653 33.571 24.532 32.831 23.378 32.031C21.421 30.692 20.444 28.599 20.444 25.751C20.444 23.152 21.401 20.994 23.313 19.275C25.225 17.555 28.036 16.696 31.743 16.696C34.839 16.696 37.477 17.506 39.665 19.127C41.849 20.748 42.995 23.101 43.103 26.185H37.275C37.168 24.44 36.388 23.2 34.935 22.464C33.966 21.979 32.761 21.735 31.322 21.735C29.72 21.735 28.443 22.05 27.488 22.68C26.533 23.31 26.054 24.189 26.054 25.318C26.054 26.355 26.525 27.129 27.468 27.64C28.072 27.982 29.357 28.382 31.323 28.841L36.415 30.042C38.645 30.566 40.319 31.269 41.433 32.147C43.162 33.512 44.027 35.488 44.027 38.072C44.027 40.723 43.004 42.926 40.953 44.678" fill="#FB8C00"/>
<path d="M95.01 21.7841C92.608 21.7841 90.692 22.6701 89.262 24.4411C87.832 26.2121 87.116 28.7321 87.116 32.0011C87.116 35.2691 87.833 37.7881 89.262 39.5601C90.691 41.3321 92.608 42.2171 95.01 42.2171C97.412 42.2171 99.319 41.3311 100.729 39.5601C102.139 37.7891 102.844 35.2691 102.844 32.0011C102.844 28.7461 102.139 26.2301 100.729 24.4511C99.319 22.6721 97.412 21.7841 95.01 21.7841" fill="#FB8C00"/>
<path d="M95 2C78.432 2 65 15.432 65 32C65 48.568 78.432 62 95 62C111.568 62 125 48.568 125 32C125 15.432 111.568 2 95 2ZM104.518 43.969C102.327 46.227 99.157 47.355 95.01 47.355C90.863 47.355 87.694 46.227 85.502 43.969C82.563 41.2 81.092 37.21 81.092 32.001C81.092 26.686 82.563 22.696 85.502 20.032C87.693 17.774 90.863 16.645 95.01 16.645C99.157 16.645 102.326 17.774 104.518 20.032C107.446 22.696 108.909 26.685 108.909 32.001C108.908 37.21 107.445 41.2 104.518 43.969" fill="#FB8C00"/>
<path d="M221.01 21.7841C218.608 21.7841 216.692 22.6701 215.262 24.4411C213.832 26.2121 213.116 28.7321 213.116 32.0011C213.116 35.2691 213.833 37.7881 215.262 39.5601C216.691 41.3321 218.608 42.2171 221.01 42.2171C223.412 42.2171 225.319 41.3311 226.729 39.5601C228.139 37.7891 228.844 35.2691 228.844 32.0011C228.844 28.7461 228.139 26.2301 226.729 24.4511C225.319 22.6721 223.412 21.7841 221.01 21.7841" fill="#FB8C00"/>
<path d="M221 2C204.432 2 191 15.432 191 32C191 48.568 204.432 62 221 62C237.568 62 251 48.568 251 32C251 15.432 237.568 2 221 2ZM230.518 43.969C228.327 46.227 225.157 47.355 221.01 47.355C216.863 47.355 213.694 46.227 211.502 43.969C208.563 41.2 207.092 37.21 207.092 32.001C207.092 26.686 208.563 22.696 211.502 20.032C213.693 17.774 216.863 16.645 221.01 16.645C225.157 16.645 228.326 17.774 230.518 20.032C233.446 22.696 234.909 26.685 234.909 32.001C234.908 37.21 233.445 41.2 230.518 43.969" fill="#FB8C00"/>
<path d="M158 2C141.432 2 128 15.432 128 32C128 48.568 141.432 62 158 62C174.568 62 188 48.568 188 32C188 15.432 174.568 2 158 2ZM164.016 46.508L155.077 33.842L152.155 36.803V46.508H146.192V17.492H152.155V29.447L163.366 17.492H171.202L159.293 29.426L171.811 46.508H164.016" fill="#FB8C00"/>
</svg>
