<svg width="23" height="23" viewBox="0 0 23 23" fill="none" xmlns="http://www.w3.org/2000/svg">
<path d="M3.66203 14.9536C4.76172 18.0191 7.85953 20.2365 11.5 20.2365C15.1405 20.2365 18.2383 18.0191 19.338 14.9536C20.3694 14.9177 21.2031 13.9402 21.2031 12.7435C21.2031 11.6115 20.4556 10.6735 19.4997 10.5477C18.5725 7.2199 15.3381 4.75818 11.5 4.75818C7.66187 4.75818 4.4275 7.2199 3.50031 10.5477C2.54437 10.6735 1.79688 11.6115 1.79688 12.7435C1.79688 13.9402 2.63062 14.9177 3.66203 14.9536ZM20.4844 12.7435C20.5013 13.0493 20.4216 13.3528 20.2565 13.6108C20.0914 13.8688 19.8492 14.0683 19.5644 14.181C19.7895 13.2477 19.8262 12.2788 19.6722 11.3311C19.9288 11.4639 20.1418 11.6676 20.2858 11.918C20.4298 12.1684 20.4987 12.455 20.4844 12.7435V12.7435ZM10.2458 5.58115C9.55938 6.26396 9.05625 7.26662 9.60969 8.45615C9.63856 8.51853 9.68471 8.57132 9.74267 8.60827C9.80064 8.64521 9.86798 8.66476 9.93672 8.66459C9.99635 8.66387 10.0549 8.64832 10.107 8.61934C10.1591 8.59036 10.2032 8.54886 10.2353 8.49859C10.2674 8.44832 10.2865 8.39085 10.2908 8.33137C10.2951 8.27189 10.2846 8.21226 10.2602 8.15787C9.57375 6.65927 11.2053 5.67099 11.5827 5.46615C11.7228 5.46615 11.8594 5.46615 11.9995 5.48771C11.5898 6.1849 11.3239 7.11568 11.9995 7.70865C12.0707 7.75348 12.1554 7.77191 12.2388 7.76073C12.3222 7.74955 12.399 7.70947 12.4559 7.64747C12.5127 7.58546 12.5461 7.50547 12.55 7.42143C12.554 7.33739 12.5283 7.25462 12.4775 7.18755C12.0427 6.82818 12.5566 5.95849 12.8045 5.59912C16.3444 6.16693 19.0469 9.04193 19.0469 12.4991C19.0469 16.3696 15.6616 19.5177 11.5 19.5177C7.33844 19.5177 3.95312 16.3696 3.95312 12.4991C3.95312 9.02396 6.68078 6.14177 10.2458 5.58115ZM3.32781 11.3311C3.17381 12.2788 3.21047 13.2477 3.43563 14.181C3.15079 14.0683 2.90865 13.8688 2.74352 13.6108C2.5784 13.3528 2.49867 13.0493 2.51562 12.7435C2.50267 12.4562 2.57227 12.1711 2.7162 11.9221C2.86013 11.6731 3.07237 11.4705 3.32781 11.3383V11.3311Z" fill="black"/>
<path d="M7.432 12.4883C7.52731 12.4883 7.61872 12.4504 7.68612 12.383C7.75351 12.3157 7.79137 12.2242 7.79137 12.1289C7.77297 11.955 7.82312 11.7807 7.93116 11.6431C8.0392 11.5056 8.19661 11.4156 8.36997 11.3922C8.54332 11.4156 8.70074 11.5056 8.80878 11.6431C8.91682 11.7807 8.96696 11.955 8.94856 12.1289C8.94856 12.2242 8.98642 12.3157 9.05382 12.383C9.12122 12.4504 9.21262 12.4883 9.30794 12.4883C9.40325 12.4883 9.49466 12.4504 9.56205 12.383C9.62945 12.3157 9.66731 12.2242 9.66731 12.1289C9.68601 11.7644 9.56032 11.4073 9.31747 11.1348C9.07463 10.8624 8.7342 10.6966 8.36997 10.6735C8.00574 10.6966 7.66531 10.8624 7.42246 11.1348C7.17962 11.4073 7.05392 11.7644 7.07262 12.1289C7.07262 12.2242 7.11049 12.3157 7.17788 12.383C7.24528 12.4504 7.33669 12.4883 7.432 12.4883Z" fill="black"/>
<path d="M13.3798 12.4883C13.4751 12.4883 13.5665 12.4504 13.6339 12.383C13.7013 12.3157 13.7391 12.2242 13.7391 12.1289C13.7207 11.955 13.7709 11.7807 13.8789 11.6431C13.9869 11.5056 14.1444 11.4156 14.3177 11.3922C14.4911 11.4156 14.6485 11.5056 14.7565 11.6431C14.8646 11.7807 14.9147 11.955 14.8963 12.1289C14.8963 12.2242 14.9342 12.3157 15.0016 12.383C15.069 12.4504 15.1604 12.4883 15.2557 12.4883C15.351 12.4883 15.4424 12.4504 15.5098 12.383C15.5772 12.3157 15.6151 12.2242 15.6151 12.1289C15.6338 11.7644 15.5081 11.4073 15.2652 11.1348C15.0224 10.8624 14.682 10.6966 14.3177 10.6735C13.9535 10.6966 13.6131 10.8624 13.3702 11.1348C13.1274 11.4073 13.0017 11.7644 13.0204 12.1289C13.0204 12.2242 13.0582 12.3157 13.1256 12.383C13.193 12.4504 13.2844 12.4883 13.3798 12.4883Z" fill="black"/>
<path d="M11.4998 17.0272C11.7531 17.0267 12.0038 16.9763 12.2375 16.8788C12.4713 16.7814 12.6835 16.6388 12.8621 16.4592C13.0407 16.2796 13.1821 16.0666 13.2783 15.8323C13.3744 15.598 13.4234 15.347 13.4225 15.0938C13.4225 14.9984 13.3846 14.907 13.3172 14.8396C13.2498 14.7722 13.1584 14.7344 13.0631 14.7344C12.9678 14.7344 12.8764 14.7722 12.809 14.8396C12.7416 14.907 12.7037 14.9984 12.7037 15.0938C12.7037 15.413 12.5769 15.7193 12.3511 15.945C12.1253 16.1708 11.8191 16.2977 11.4998 16.2977C11.1805 16.2977 10.8743 16.1708 10.6485 15.945C10.4228 15.7193 10.2959 15.413 10.2959 15.0938C10.2959 14.9984 10.258 14.907 10.1907 14.8396C10.1233 14.7722 10.0318 14.7344 9.93654 14.7344C9.84122 14.7344 9.74982 14.7722 9.68242 14.8396C9.61502 14.907 9.57716 14.9984 9.57716 15.0938C9.57622 15.347 9.62522 15.598 9.72138 15.8323C9.81753 16.0666 9.95895 16.2796 10.1375 16.4592C10.3161 16.6388 10.5284 16.7814 10.7621 16.8788C10.9959 16.9763 11.2466 17.0267 11.4998 17.0272V17.0272Z" fill="black"/>
</svg>
