<svg width="25" height="16" viewBox="0 0 25 16" fill="none" xmlns="http://www.w3.org/2000/svg">
<g clip-path="url(#clip0_575_1000)">
<path d="M24.3749 5.3472L24.3749 5.34724L22.4233 7.27318C22.2869 7.40784 22.0587 7.49937 21.7976 7.49937C21.6066 7.49937 21.4257 7.4496 21.2845 7.36039L21.2842 7.36024L19.0167 5.93021L18.25 5.44666V6.35313V14.5C18.25 14.9539 17.7443 15.5 16.875 15.5H8.12501C7.25612 15.5 6.75001 14.9536 6.75001 14.5V6.35313V5.45324L5.98591 5.92857L3.68513 7.35982L3.66957 7.36949L3.65476 7.38028C3.58793 7.42899 3.4443 7.47188 3.20236 7.47188C2.94145 7.47188 2.71307 7.38029 2.57654 7.24561L2.57655 7.2456L2.57405 7.24317L0.624437 5.34656C0.624175 5.34631 0.623914 5.34605 0.623653 5.34579C0.528273 5.25167 0.5 5.15899 0.5 5.0875C0.5 4.99413 0.550623 4.85627 0.736175 4.73897C0.736202 4.73895 0.73623 4.73894 0.736258 4.73892L6.00829 1.40855C6.00849 1.40843 6.00869 1.4083 6.00889 1.40818C6.42475 1.14746 6.95264 1 7.46486 1H8.43592C8.97188 2.49558 10.6396 3.5 12.5 3.5C14.3599 3.5 16.0291 2.49593 16.564 1H17.4996C18.052 1 18.5778 1.14898 18.9901 1.40933L24.2634 4.74053L24.2642 4.74099C24.4498 4.85778 24.5 4.99597 24.5 5.0875C24.5 5.15904 24.4721 5.25138 24.3749 5.3472Z" stroke="black"/>
</g>
<defs>
<clipPath id="clip0_575_1000">
<rect width="25" height="16" fill="white"/>
</clipPath>
</defs>
</svg>
