<svg width="20" height="20" viewBox="0 0 20 20" fill="none" xmlns="http://www.w3.org/2000/svg">
<g clip-path="url(#clip0_575_1020)">
<path d="M15 5H10.8333C10.8333 3.58333 9.75 2.5 8.33333 2.5H5C4.5 2.5 4.16667 2.16667 4.16667 1.66667C4.16667 1.16667 4.5 0.833333 5 0.833333H16.25C16.5 0.833333 16.6667 0.666667 16.6667 0.416667C16.6667 0.166667 16.5 0 16.25 0H5C4.08333 0 3.33333 0.75 3.33333 1.66667C3.33333 2.58333 4.08333 3.33333 5 3.33333H8.33333C9.25 3.33333 10 4.08333 10 5H5C2.25 5 0 7.25 0 10V16.6667C0 18.5 1.5 20 3.33333 20C4.25 20 5.08333 19.6667 5.66667 19L9.5 15.0833C9.66667 15 9.75 14.9167 9.91667 14.9167C10.0833 14.9167 10.25 15 10.3333 15.0833L14.1667 19C14.75 19.5833 15.5833 20 16.5 20C18.3333 20 19.8333 18.5 19.8333 16.6667V10C20 7.25 17.75 5 15 5ZM18.3333 16.6667C18.3333 17.5833 17.5833 18.3333 16.6667 18.3333C16.1667 18.3333 15.75 18.1667 15.5 17.8333L11.75 14.0833C11.75 14.0833 11 13.3333 10 13.3333C9 13.3333 8.25 14.0833 8.25 14.0833L4.5 17.8333C4.25 18.1667 3.83333 18.3333 3.33333 18.3333C2.41667 18.3333 1.66667 17.5833 1.66667 16.6667V10C1.66667 8.16667 3.16667 6.66667 5 6.66667H15C16.8333 6.66667 18.3333 8.16667 18.3333 10V16.6667Z" fill="black"/>
<path d="M14.1668 13.3333C14.6271 13.3333 15.0002 12.9602 15.0002 12.5C15.0002 12.0397 14.6271 11.6666 14.1668 11.6666C13.7066 11.6666 13.3335 12.0397 13.3335 12.5C13.3335 12.9602 13.7066 13.3333 14.1668 13.3333Z" fill="black"/>
<path d="M14.1668 10C14.6271 10 15.0002 9.62694 15.0002 9.16671C15.0002 8.70647 14.6271 8.33337 14.1668 8.33337C13.7066 8.33337 13.3335 8.70647 13.3335 9.16671C13.3335 9.62694 13.7066 10 14.1668 10Z" fill="black"/>
<path d="M12.4998 11.6667C12.9601 11.6667 13.3332 11.2936 13.3332 10.8333C13.3332 10.3731 12.9601 10 12.4998 10C12.0396 10 11.6665 10.3731 11.6665 10.8333C11.6665 11.2936 12.0396 11.6667 12.4998 11.6667Z" fill="black"/>
<path d="M15.8333 11.6667C16.2936 11.6667 16.6667 11.2936 16.6667 10.8333C16.6667 10.3731 16.2936 10 15.8333 10C15.3731 10 15 10.3731 15 10.8333C15 11.2936 15.3731 11.6667 15.8333 11.6667Z" fill="black"/>
<path d="M7.50016 10H6.66683V9.16671C6.66683 8.66671 6.3335 8.33337 5.8335 8.33337C5.3335 8.33337 5.00016 8.66671 5.00016 9.16671V10H4.16683C3.66683 10 3.3335 10.3334 3.3335 10.8334C3.3335 11.3334 3.66683 11.6667 4.16683 11.6667H5.00016V12.5C5.00016 13 5.3335 13.3334 5.8335 13.3334C6.3335 13.3334 6.66683 13 6.66683 12.5V11.6667H7.50016C8.00016 11.6667 8.3335 11.3334 8.3335 10.8334C8.3335 10.3334 8.00016 10 7.50016 10Z" fill="black"/>
</g>
<defs>
<clipPath id="clip0_575_1020">
<rect width="20" height="20" fill="white"/>
</clipPath>
</defs>
</svg>
