<svg width="15" height="19" viewBox="0 0 15 19" fill="none" xmlns="http://www.w3.org/2000/svg">
<path d="M0.959999 0H15V17.16H13.7V18.46H11.36V17.16H4.6V18.46H2.26V17.16H0.959999V0ZM1.48 0.52V3.38H14.48V0.52H1.48ZM11.88 17.94H13.18V17.16H11.88V17.94ZM2.78 17.94H4.08V17.16H2.78V17.94ZM14.48 16.64V3.9H1.48V16.64H14.48ZM7.98 7.1292C8.60119 7.1292 9.20843 7.3134 9.72493 7.65852C10.2414 8.00364 10.644 8.49416 10.8817 9.06807C11.1194 9.64197 11.1816 10.2735 11.0604 10.8827C10.9393 11.492 10.6401 12.0516 10.2009 12.4909C9.76163 12.9301 9.20199 13.2293 8.59274 13.3504C7.98348 13.4716 7.35197 13.4094 6.77807 13.1717C6.20416 12.934 5.71364 12.5314 5.36852 12.0149C5.0234 11.4984 4.8392 10.8912 4.8392 10.27C4.84057 9.43743 5.17192 8.63935 5.76064 8.05064C6.34935 7.46192 7.14743 7.13057 7.98 7.1292ZM7.98 12.8934C8.49823 12.8934 9.00484 12.7398 9.43577 12.4519C9.8667 12.164 10.2026 11.7549 10.4011 11.2761C10.5995 10.7974 10.6515 10.2706 10.5506 9.76226C10.4497 9.25395 10.2004 8.78696 9.8341 8.42033C9.46784 8.0537 9.0011 7.80389 8.49288 7.70248C7.98467 7.60106 7.4578 7.65259 6.97886 7.85055C6.49993 8.04851 6.09044 8.38402 5.80215 8.81467C5.51386 9.24532 5.35971 9.75177 5.3592 10.27C5.35989 10.9649 5.63623 11.6311 6.12757 12.1224C6.61892 12.6138 7.28513 12.8901 7.98 12.8908V12.8934ZM4.86 1.04H7.46V2.86H4.86V1.04ZM5.38 2.34H6.94V1.56H5.38V2.34ZM2 1.04H4.34V2.86H2V1.04ZM2.52 2.34H3.82V1.56H2.52V2.34ZM2.8502 8.385C2.87011 8.3838 2.89008 8.3838 2.91 8.385C3.2558 7.45695 3.84924 6.64136 4.62588 6.02679C5.40251 5.41222 6.33267 5.02215 7.31536 4.89893C8.29805 4.77571 9.29571 4.92405 10.2 5.32785C11.1044 5.73164 11.8808 6.37546 12.445 7.1894C13.0093 8.00335 13.3397 8.95631 13.4006 9.94482C13.4614 10.9333 13.2503 11.9196 12.7901 12.7966C12.3299 13.6736 11.6383 14.4078 10.7903 14.9194C9.94233 15.431 8.97038 15.7006 7.98 15.6988C6.86545 15.6866 5.78152 15.3325 4.87477 14.6843C3.96801 14.0361 3.28218 13.125 2.91 12.0744C2.5382 12.0744 2 11.6558 2 11.2684V9.2742C1.99582 9.15958 2.01467 9.04529 2.05543 8.93808C2.09618 8.83087 2.15802 8.73292 2.23729 8.65002C2.31655 8.56712 2.41163 8.50096 2.5169 8.45544C2.62218 8.40992 2.73551 8.38597 2.8502 8.385ZM2.52 9.2742V9.36H3.3V9.2742C3.3 9.17077 3.25891 9.07157 3.18577 8.99843C3.11263 8.92529 3.01343 8.8842 2.91 8.8842C2.80656 8.8842 2.70737 8.92529 2.63423 8.99843C2.56109 9.07157 2.52 9.17077 2.52 9.2742ZM3.3 10.66H2.52V10.92H3.3V10.66ZM3.3 10.14H2.52V10.4H3.3V10.14ZM3.3 9.88V9.62H2.52V9.88H3.3ZM7.98 15.1788C9.26199 15.1493 10.4815 14.6193 11.3778 13.7022C12.274 12.7851 12.7758 11.5536 12.7758 10.2713C12.7758 8.98897 12.274 7.75754 11.3778 6.84043C10.4815 5.92331 9.26199 5.39331 7.98 5.3638C6.98185 5.36114 6.00766 5.6694 5.19273 6.24577C4.37781 6.82213 3.76261 7.63798 3.4326 8.58C3.54378 8.66057 3.63605 8.76442 3.70296 8.88432C3.76987 9.00422 3.80981 9.13727 3.82 9.2742V11.2684C3.80944 11.4049 3.76932 11.5374 3.70243 11.6568C3.63553 11.7763 3.54346 11.8797 3.4326 11.96C3.76218 12.9025 4.37718 13.7189 5.19215 14.2958C6.00711 14.8726 6.98154 15.1813 7.98 15.1788ZM2.91 11.635C3.01012 11.6358 3.10665 11.5978 3.17935 11.5289C3.25206 11.4601 3.2953 11.3658 3.3 11.2658V11.18H2.52V11.2658C2.5247 11.3658 2.56794 11.4601 2.64064 11.5289C2.71335 11.5978 2.80988 11.6358 2.91 11.635Z" fill="black"/>
</svg>
