<svg width="15" height="15" viewBox="0 0 15 15" fill="none" xmlns="http://www.w3.org/2000/svg">
<g clip-path="url(#clip0_575_1012)">
<path d="M1.37633 6.18248H1.00164V5.87061H13.9985V6.18248H1.37633Z" fill="#FFF7F8" stroke="black"/>
<path d="M9.76709 8.78846V7.87939H11.0736C10.9988 8.01418 10.9562 8.16928 10.9562 8.33408C10.9562 8.49898 10.9986 8.6539 11.0732 8.78846H9.76709ZM12.8299 8.33408C12.8299 8.16915 12.7873 8.0141 12.7124 7.87939H13.9965V8.78846H12.7129C12.7874 8.65398 12.8299 8.49911 12.8299 8.33408Z" fill="#FFF7F8" stroke="black"/>
<path d="M14.0069 10.4624V11.4446H12.6914C12.7794 11.3017 12.8301 11.1335 12.8301 10.9533C12.8301 10.7731 12.7794 10.605 12.6915 10.4624H14.0069ZM10.9563 10.9533C10.9563 11.1333 11.007 11.3016 11.095 11.4446H9.77881V10.4624H11.0948C11.0069 10.6052 10.9563 10.7733 10.9563 10.9533Z" fill="#FFF7F8" stroke="black"/>
<path d="M10.9562 13.8036C10.9562 14.0764 11.0725 14.3219 11.2582 14.4931H9.76709V13.1146H11.2572C11.0718 13.2859 10.9559 13.5313 10.9562 13.8036ZM10.9562 13.8036C10.9562 13.8037 10.9562 13.8039 10.9562 13.804L11.4562 13.8034H10.9562C10.9562 13.8035 10.9562 13.8035 10.9562 13.8036ZM13.9965 13.1146V14.4931H12.5277C12.7135 14.322 12.8299 14.0766 12.8299 13.8034C12.8299 13.531 12.7139 13.2858 12.5285 13.1146H13.9965Z" fill="#FFF7F8" stroke="black"/>
<path d="M2.68652 3.95684V0.506836H2.82465H8.09059H8.22777V4.02184H8.09059H2.82465H2.77527H2.68652V3.95684Z" fill="#FFF7F8" stroke="black"/>
</g>
<defs>
<clipPath id="clip0_575_1012">
<rect width="15" height="15" fill="white"/>
</clipPath>
</defs>
</svg>
