<svg width="17" height="17" viewBox="0 0 17 17" fill="none" xmlns="http://www.w3.org/2000/svg">
<g clip-path="url(#clip0_575_1028)">
<path d="M6.14255 3.16302V3.48833L6.43996 3.62014C7.85958 4.24929 8.85086 5.66628 8.85121 7.31456C8.85121 7.31459 8.85121 7.31462 8.85121 7.31465V10.1575V10.6664V16.2208C8.85121 16.3653 8.73477 16.4801 8.59365 16.4801H1.01378C0.872458 16.4801 0.756214 16.3655 0.756214 16.2208V10.7896V10.1585V7.95525V7.8521H0.786887L0.757569 7.32437C0.757028 7.31463 0.756364 7.30631 0.755885 7.3007C0.761698 5.65816 1.75037 4.24779 3.16665 3.62054L3.46417 3.48877V3.16337V2.30275V2.02862L3.23307 1.88121C3.10041 1.79658 3.03173 1.67288 3.03173 1.54518V0.935308C3.03173 0.70507 3.21722 0.520142 3.44584 0.520142H6.16123C6.38986 0.520142 6.57534 0.70507 6.57534 0.935308V1.54483C6.57534 1.67265 6.50686 1.79588 6.37365 1.88085L6.14255 2.02827V2.30239V3.16302ZM8.29258 14.9641L8.3035 14.9126V14.8601V10.7209V10.6932H8.30386V10.1932V7.31491C8.30386 5.3647 6.72327 3.78325 4.77219 3.78325C2.92237 3.78325 1.4299 5.21049 1.27391 7.01073L1.27205 7.03227V7.05389V12.2176V12.7521V14.7064C1.27205 15.401 1.83545 15.9632 2.53032 15.9632H7.07676C7.69763 15.9632 8.17481 15.518 8.29258 14.9641Z" fill="#FFFCFC" stroke="black"/>
<path d="M3.24561 12.1617V11.4073V9.68774H6.36102V11.4073V12.1617V13.4654C6.36102 13.7565 6.12493 13.9935 5.83181 13.9935H3.77481C3.48207 13.9935 3.24561 13.7565 3.24561 13.4654V12.1617Z" fill="#FFFCFC" stroke="black"/>
<path d="M11.7799 16.05L14.1185 13.7745L14.1186 13.7745L14.1234 13.7697L15.1296 12.7635L16.1546 11.7384L14.7156 11.9136L14.776 12.4099C14.7156 11.9136 14.7155 11.9136 14.7153 11.9136L14.7149 11.9137L14.7139 11.9138L14.7114 11.9141L14.7042 11.9151L14.6808 11.9183C14.6614 11.9211 14.6344 11.9252 14.6004 11.931C14.5325 11.9425 14.4365 11.9605 14.3177 11.9874C14.0803 12.041 13.7499 12.1303 13.3684 12.2743C12.8655 12.4641 12.2667 12.7516 11.6738 13.1831C11.7516 12.6321 11.9373 12.0981 12.3006 11.6835C12.8476 11.0591 13.9266 10.5686 16.108 10.9249C16.3473 12.2931 16.2462 13.2273 15.9905 13.8606C15.7216 14.5268 15.2623 14.9092 14.7274 15.1304L14.7171 15.1347L14.707 15.1394C14.6946 15.1451 14.6824 15.1514 14.6702 15.1583C14.6639 15.1619 14.6579 15.1654 14.6522 15.169C14.5424 15.224 14.2628 15.3253 13.8479 15.4556C13.4322 15.5863 12.9296 15.7316 12.4416 15.8679C12.2136 15.9316 11.9895 15.9931 11.7799 16.05Z" fill="#FFFCFC" stroke="black"/>
</g>
<defs>
<clipPath id="clip0_575_1028">
<rect width="17" height="17" fill="white"/>
</clipPath>
</defs>
</svg>
