<svg width="19" height="19" viewBox="0 0 19 19" fill="none" xmlns="http://www.w3.org/2000/svg">
<path d="M17.8125 16.2292H1.1875C0.532792 16.2292 0 15.6965 0 15.0417V14.2501C0 14.0316 0.176938 13.8542 0.395833 13.8542H18.6042C18.8231 13.8542 19 14.0316 19 14.2501V15.0417C19 15.6965 18.4672 16.2292 17.8125 16.2292ZM0.791667 14.6459V15.0417C0.791667 15.2599 0.969 15.4376 1.1875 15.4376H17.8125C18.031 15.4376 18.2083 15.2599 18.2083 15.0417V14.6459H0.791667Z" fill="black"/>
<path d="M16.2293 13.0625H2.771C2.11629 13.0625 1.5835 12.5297 1.5835 11.875V3.95837C1.5835 3.30367 2.11629 2.77087 2.771 2.77087H16.2293C16.884 2.77087 17.4168 3.30367 17.4168 3.95837V11.875C17.4168 12.5297 16.884 13.0625 16.2293 13.0625ZM2.771 3.56254C2.5525 3.56254 2.37516 3.74027 2.37516 3.95837V11.875C2.37516 12.0931 2.5525 12.2709 2.771 12.2709H16.2293C16.4478 12.2709 16.6252 12.0931 16.6252 11.875V3.95837C16.6252 3.74027 16.4478 3.56254 16.2293 3.56254H2.771Z" fill="black"/>
<path d="M15.8332 11.4792H3.1665V4.35425H15.8332V11.4792ZM3.95817 10.6876H15.0415V5.14591H3.95817V10.6876Z" fill="black"/>
</svg>
