<svg width="18" height="18" viewBox="0 0 18 18" fill="none" xmlns="http://www.w3.org/2000/svg">
<g clip-path="url(#clip0_575_1002)">
<mask id="path-1-inside-1_575_1002" fill="white">
<path d="M17.2802 9.35997V10.44C17.28 10.6309 17.2041 10.8139 17.0691 10.9488C16.9341 11.0838 16.7511 11.1598 16.5602 11.16H1.44021C1.24933 11.1598 1.06632 11.0838 0.931339 10.9488C0.79636 10.8139 0.720433 10.6309 0.720215 10.44V9.35997C0.720433 9.16908 0.79636 8.98607 0.931339 8.85109C1.06632 8.71612 1.24933 8.64019 1.44021 8.63997H16.5602C16.7511 8.64019 16.9341 8.71612 17.0691 8.85109C17.2041 8.98607 17.28 9.16908 17.2802 9.35997ZM1.56477 11.88H16.4357L15.9126 16.3262C15.8816 16.5889 15.7552 16.8311 15.5575 17.0069C15.3598 17.1826 15.1046 17.2798 14.84 17.28H3.16041C2.89593 17.2798 2.64068 17.1827 2.443 17.007C2.24532 16.8313 2.11894 16.5892 2.08779 16.3265L1.56477 11.88ZM12.2402 15.48C12.2402 15.5754 12.2781 15.667 12.3457 15.7345C12.4132 15.802 12.5047 15.84 12.6002 15.84C12.6957 15.84 12.7873 15.802 12.8548 15.7345C12.9223 15.667 12.9602 15.5754 12.9602 15.48V12.96C12.9602 12.8645 12.9223 12.7729 12.8548 12.7054C12.7873 12.6379 12.6957 12.6 12.6002 12.6C12.5047 12.6 12.4132 12.6379 12.3457 12.7054C12.2781 12.7729 12.2402 12.8645 12.2402 12.96V15.48ZM8.64021 15.48C8.64021 15.5754 8.67814 15.667 8.74566 15.7345C8.81317 15.802 8.90474 15.84 9.00021 15.84C9.09569 15.84 9.18726 15.802 9.25477 15.7345C9.32229 15.667 9.36021 15.5754 9.36021 15.48V12.96C9.36021 12.8645 9.32229 12.7729 9.25477 12.7054C9.18726 12.6379 9.09569 12.6 9.00021 12.6C8.90474 12.6 8.81317 12.6379 8.74566 12.7054C8.67814 12.7729 8.64021 12.8645 8.64021 12.96V15.48ZM5.04021 15.48C5.04021 15.5754 5.07814 15.667 5.14566 15.7345C5.21317 15.802 5.30474 15.84 5.40021 15.84C5.49569 15.84 5.58726 15.802 5.65477 15.7345C5.72229 15.667 5.76021 15.5754 5.76021 15.48V12.96C5.76021 12.8645 5.72229 12.7729 5.65477 12.7054C5.58726 12.6379 5.49569 12.6 5.40021 12.6C5.30474 12.6 5.21317 12.6379 5.14566 12.7054C5.07814 12.7729 5.04021 12.8645 5.04021 12.96V15.48ZM3.16144 5.05983C2.85496 4.86519 2.60253 4.59637 2.42751 4.27826C2.2525 3.96016 2.16057 3.60304 2.16021 3.23997V2.15997C2.1602 2.11269 2.16951 2.06587 2.18759 2.02219C2.20568 1.97851 2.2322 1.93882 2.26563 1.90538C2.29906 1.87195 2.33875 1.84544 2.38243 1.82735C2.42612 1.80926 2.47294 1.79996 2.52021 1.79997H2.88021C3.45289 1.8006 4.00193 2.02837 4.40687 2.43331C4.81182 2.83825 5.03959 3.38729 5.04021 3.95997V4.70121C5.83172 4.79053 6.56269 5.16796 7.09382 5.76156C7.62495 6.35517 7.9191 7.12344 7.92021 7.91997H1.44021C1.44077 7.33196 1.60124 6.75517 1.90443 6.25135C2.20763 5.74753 2.64214 5.33566 3.16144 5.05983ZM5.04021 5.39997C4.94474 5.39997 4.85317 5.4379 4.78566 5.50541C4.71814 5.57293 4.68021 5.66449 4.68021 5.75997C4.68021 5.85545 4.71814 5.94702 4.78566 6.01453C4.85317 6.08204 4.94474 6.11997 5.04021 6.11997C5.27964 6.11984 5.5123 6.19933 5.70159 6.34594C5.89087 6.49255 6.02602 6.69794 6.08576 6.92979C6.10986 7.02198 6.16952 7.10086 6.25166 7.14915C6.3338 7.19745 6.43173 7.21122 6.524 7.18745C6.61628 7.16369 6.69537 7.10432 6.74397 7.02236C6.79256 6.9404 6.80669 6.84251 6.78326 6.75015C6.68361 6.36366 6.45829 6.02126 6.14275 5.77684C5.8272 5.53241 5.43935 5.39984 5.04021 5.39997ZM6.48021 4.39711V3.23997C6.48099 2.57186 6.74674 1.93135 7.21917 1.45892C7.69159 0.9865 8.33211 0.72075 9.00021 0.719971C9.66831 0.720778 10.3088 0.986536 10.7812 1.45895C11.2536 1.93137 11.5194 2.57187 11.5202 3.23997V7.91997H8.64021C8.64021 7.79846 8.63274 7.67873 8.62198 7.55997H9.72021C9.81569 7.55997 9.90726 7.52204 9.97477 7.45453C10.0423 7.38702 10.0802 7.29545 10.0802 7.19997C10.0802 7.10449 10.0423 7.01292 9.97477 6.94541C9.90726 6.8779 9.81569 6.83997 9.72021 6.83997H8.48669C8.33723 6.31715 8.08203 5.83057 7.73689 5.41038C7.39176 4.99018 6.96404 4.64531 6.48021 4.39711ZM7.92021 3.59997C7.9202 3.64725 7.92951 3.69407 7.94759 3.73775C7.96568 3.78143 7.9922 3.82112 8.02563 3.85456C8.05906 3.88799 8.09875 3.9145 8.14243 3.93259C8.18612 3.95068 8.23293 3.95998 8.28021 3.95997H9.72021C9.81569 3.95997 9.90726 3.92204 9.97477 3.85453C10.0423 3.78702 10.0802 3.69545 10.0802 3.59997C10.0802 3.50449 10.0423 3.41293 9.97477 3.34541C9.90726 3.2779 9.81569 3.23997 9.72021 3.23997H8.28021C8.23293 3.23996 8.18612 3.24926 8.14243 3.26735C8.09875 3.28544 8.05906 3.31195 8.02563 3.34538C7.9922 3.37882 7.96568 3.41851 7.94759 3.46219C7.92951 3.50587 7.9202 3.55269 7.92021 3.59997ZM8.64021 5.39997C8.6402 5.44725 8.64951 5.49407 8.66759 5.53775C8.68568 5.58143 8.7122 5.62112 8.74563 5.65456C8.77906 5.68799 8.81875 5.7145 8.86243 5.73259C8.90612 5.75068 8.95293 5.75998 9.00021 5.75997H9.72021C9.81569 5.75997 9.90726 5.72204 9.97477 5.65453C10.0423 5.58702 10.0802 5.49545 10.0802 5.39997C10.0802 5.30449 10.0423 5.21292 9.97477 5.14541C9.90726 5.0779 9.81569 5.03997 9.72021 5.03997H9.00021C8.95293 5.03996 8.90612 5.04926 8.86243 5.06735C8.81875 5.08544 8.77906 5.11195 8.74563 5.14538C8.7122 5.17882 8.68568 5.21851 8.66759 5.26219C8.64951 5.30587 8.6402 5.35269 8.64021 5.39997ZM16.5602 7.91997H12.2402V5.03997H15.4802C15.7666 5.04028 16.0411 5.15417 16.2435 5.35664C16.446 5.55911 16.5599 5.83363 16.5602 6.11997V7.91997ZM15.1202 6.11997C15.1202 6.07269 15.1109 6.02587 15.0928 5.98219C15.0747 5.93851 15.0482 5.89882 15.0148 5.86538C14.9814 5.83195 14.9417 5.80544 14.898 5.78735C14.8543 5.76926 14.8075 5.75996 14.7602 5.75997H13.3202C13.2247 5.75997 13.1332 5.7979 13.0657 5.86541C12.9981 5.93292 12.9602 6.02449 12.9602 6.11997C12.9602 6.21545 12.9981 6.30702 13.0657 6.37453C13.1332 6.44204 13.2247 6.47997 13.3202 6.47997H14.7602C14.8075 6.47998 14.8543 6.47068 14.898 6.45259C14.9417 6.4345 14.9814 6.40799 15.0148 6.37456C15.0482 6.34112 15.0747 6.30143 15.0928 6.25775C15.1109 6.21407 15.1202 6.16725 15.1202 6.11997Z"/>
</mask>
<path d="M17.2802 9.35997V10.44C17.28 10.6309 17.2041 10.8139 17.0691 10.9488C16.9341 11.0838 16.7511 11.1598 16.5602 11.16H1.44021C1.24933 11.1598 1.06632 11.0838 0.931339 10.9488C0.79636 10.8139 0.720433 10.6309 0.720215 10.44V9.35997C0.720433 9.16908 0.79636 8.98607 0.931339 8.85109C1.06632 8.71612 1.24933 8.64019 1.44021 8.63997H16.5602C16.7511 8.64019 16.9341 8.71612 17.0691 8.85109C17.2041 8.98607 17.28 9.16908 17.2802 9.35997ZM1.56477 11.88H16.4357L15.9126 16.3262C15.8816 16.5889 15.7552 16.8311 15.5575 17.0069C15.3598 17.1826 15.1046 17.2798 14.84 17.28H3.16041C2.89593 17.2798 2.64068 17.1827 2.443 17.007C2.24532 16.8313 2.11894 16.5892 2.08779 16.3265L1.56477 11.88ZM12.2402 15.48C12.2402 15.5754 12.2781 15.667 12.3457 15.7345C12.4132 15.802 12.5047 15.84 12.6002 15.84C12.6957 15.84 12.7873 15.802 12.8548 15.7345C12.9223 15.667 12.9602 15.5754 12.9602 15.48V12.96C12.9602 12.8645 12.9223 12.7729 12.8548 12.7054C12.7873 12.6379 12.6957 12.6 12.6002 12.6C12.5047 12.6 12.4132 12.6379 12.3457 12.7054C12.2781 12.7729 12.2402 12.8645 12.2402 12.96V15.48ZM8.64021 15.48C8.64021 15.5754 8.67814 15.667 8.74566 15.7345C8.81317 15.802 8.90474 15.84 9.00021 15.84C9.09569 15.84 9.18726 15.802 9.25477 15.7345C9.32229 15.667 9.36021 15.5754 9.36021 15.48V12.96C9.36021 12.8645 9.32229 12.7729 9.25477 12.7054C9.18726 12.6379 9.09569 12.6 9.00021 12.6C8.90474 12.6 8.81317 12.6379 8.74566 12.7054C8.67814 12.7729 8.64021 12.8645 8.64021 12.96V15.48ZM5.04021 15.48C5.04021 15.5754 5.07814 15.667 5.14566 15.7345C5.21317 15.802 5.30474 15.84 5.40021 15.84C5.49569 15.84 5.58726 15.802 5.65477 15.7345C5.72229 15.667 5.76021 15.5754 5.76021 15.48V12.96C5.76021 12.8645 5.72229 12.7729 5.65477 12.7054C5.58726 12.6379 5.49569 12.6 5.40021 12.6C5.30474 12.6 5.21317 12.6379 5.14566 12.7054C5.07814 12.7729 5.04021 12.8645 5.04021 12.96V15.48ZM3.16144 5.05983C2.85496 4.86519 2.60253 4.59637 2.42751 4.27826C2.2525 3.96016 2.16057 3.60304 2.16021 3.23997V2.15997C2.1602 2.11269 2.16951 2.06587 2.18759 2.02219C2.20568 1.97851 2.2322 1.93882 2.26563 1.90538C2.29906 1.87195 2.33875 1.84544 2.38243 1.82735C2.42612 1.80926 2.47294 1.79996 2.52021 1.79997H2.88021C3.45289 1.8006 4.00193 2.02837 4.40687 2.43331C4.81182 2.83825 5.03959 3.38729 5.04021 3.95997V4.70121C5.83172 4.79053 6.56269 5.16796 7.09382 5.76156C7.62495 6.35517 7.9191 7.12344 7.92021 7.91997H1.44021C1.44077 7.33196 1.60124 6.75517 1.90443 6.25135C2.20763 5.74753 2.64214 5.33566 3.16144 5.05983ZM5.04021 5.39997C4.94474 5.39997 4.85317 5.4379 4.78566 5.50541C4.71814 5.57293 4.68021 5.66449 4.68021 5.75997C4.68021 5.85545 4.71814 5.94702 4.78566 6.01453C4.85317 6.08204 4.94474 6.11997 5.04021 6.11997C5.27964 6.11984 5.5123 6.19933 5.70159 6.34594C5.89087 6.49255 6.02602 6.69794 6.08576 6.92979C6.10986 7.02198 6.16952 7.10086 6.25166 7.14915C6.3338 7.19745 6.43173 7.21122 6.524 7.18745C6.61628 7.16369 6.69537 7.10432 6.74397 7.02236C6.79256 6.9404 6.80669 6.84251 6.78326 6.75015C6.68361 6.36366 6.45829 6.02126 6.14275 5.77684C5.8272 5.53241 5.43935 5.39984 5.04021 5.39997ZM6.48021 4.39711V3.23997C6.48099 2.57186 6.74674 1.93135 7.21917 1.45892C7.69159 0.9865 8.33211 0.72075 9.00021 0.719971C9.66831 0.720778 10.3088 0.986536 10.7812 1.45895C11.2536 1.93137 11.5194 2.57187 11.5202 3.23997V7.91997H8.64021C8.64021 7.79846 8.63274 7.67873 8.62198 7.55997H9.72021C9.81569 7.55997 9.90726 7.52204 9.97477 7.45453C10.0423 7.38702 10.0802 7.29545 10.0802 7.19997C10.0802 7.10449 10.0423 7.01292 9.97477 6.94541C9.90726 6.8779 9.81569 6.83997 9.72021 6.83997H8.48669C8.33723 6.31715 8.08203 5.83057 7.73689 5.41038C7.39176 4.99018 6.96404 4.64531 6.48021 4.39711ZM7.92021 3.59997C7.9202 3.64725 7.92951 3.69407 7.94759 3.73775C7.96568 3.78143 7.9922 3.82112 8.02563 3.85456C8.05906 3.88799 8.09875 3.9145 8.14243 3.93259C8.18612 3.95068 8.23293 3.95998 8.28021 3.95997H9.72021C9.81569 3.95997 9.90726 3.92204 9.97477 3.85453C10.0423 3.78702 10.0802 3.69545 10.0802 3.59997C10.0802 3.50449 10.0423 3.41293 9.97477 3.34541C9.90726 3.2779 9.81569 3.23997 9.72021 3.23997H8.28021C8.23293 3.23996 8.18612 3.24926 8.14243 3.26735C8.09875 3.28544 8.05906 3.31195 8.02563 3.34538C7.9922 3.37882 7.96568 3.41851 7.94759 3.46219C7.92951 3.50587 7.9202 3.55269 7.92021 3.59997ZM8.64021 5.39997C8.6402 5.44725 8.64951 5.49407 8.66759 5.53775C8.68568 5.58143 8.7122 5.62112 8.74563 5.65456C8.77906 5.68799 8.81875 5.7145 8.86243 5.73259C8.90612 5.75068 8.95293 5.75998 9.00021 5.75997H9.72021C9.81569 5.75997 9.90726 5.72204 9.97477 5.65453C10.0423 5.58702 10.0802 5.49545 10.0802 5.39997C10.0802 5.30449 10.0423 5.21292 9.97477 5.14541C9.90726 5.0779 9.81569 5.03997 9.72021 5.03997H9.00021C8.95293 5.03996 8.90612 5.04926 8.86243 5.06735C8.81875 5.08544 8.77906 5.11195 8.74563 5.14538C8.7122 5.17882 8.68568 5.21851 8.66759 5.26219C8.64951 5.30587 8.6402 5.35269 8.64021 5.39997ZM16.5602 7.91997H12.2402V5.03997H15.4802C15.7666 5.04028 16.0411 5.15417 16.2435 5.35664C16.446 5.55911 16.5599 5.83363 16.5602 6.11997V7.91997ZM15.1202 6.11997C15.1202 6.07269 15.1109 6.02587 15.0928 5.98219C15.0747 5.93851 15.0482 5.89882 15.0148 5.86538C14.9814 5.83195 14.9417 5.80544 14.898 5.78735C14.8543 5.76926 14.8075 5.75996 14.7602 5.75997H13.3202C13.2247 5.75997 13.1332 5.7979 13.0657 5.86541C12.9981 5.93292 12.9602 6.02449 12.9602 6.11997C12.9602 6.21545 12.9981 6.30702 13.0657 6.37453C13.1332 6.44204 13.2247 6.47997 13.3202 6.47997H14.7602C14.8075 6.47998 14.8543 6.47068 14.898 6.45259C14.9417 6.4345 14.9814 6.40799 15.0148 6.37456C15.0482 6.34112 15.0747 6.30143 15.0928 6.25775C15.1109 6.21407 15.1202 6.16725 15.1202 6.11997Z" fill="#FFFDFD" stroke="black" stroke-width="2" mask="url(#path-1-inside-1_575_1002)"/>
</g>
<defs>
<clipPath id="clip0_575_1002">
<rect width="18" height="18" fill="white"/>
</clipPath>
</defs>
</svg>
