<svg width="18" height="18" viewBox="0 0 18 18" fill="none" xmlns="http://www.w3.org/2000/svg">
<path d="M5.58066 4.18797L3.87222 2.04926L4.25344 1.75357L6.36052 4.37107L6.75146 4.85671L7.14062 4.36965L9.2443 1.73678L9.63152 2.04457L7.91934 4.18797L7.27065 5.00003H8.31H16V16H2V5.00003H5.19H6.22935L5.58066 4.18797ZM10.5 15.5H11V15V6.00003V5.50003H10.5H3H2.5V6.00003V15V15.5H3H10.5ZM14.25 12.5H14.75V12V10.5V10H14.25H12.75H12.25V10.5V12V12.5H12.75H14.25ZM14.25 9.50004H14.75V9.00004V7.50004V7.00004H14.25H12.75H12.25V7.50004V9.00004V9.50004H12.75H14.25Z" stroke="black"/>
</svg>
