<svg width="24" height="24" viewBox="0 0 24 24" fill="none" xmlns="http://www.w3.org/2000/svg">
<path d="M11 11L3 6V16H13V18H3C2.45 18 1.97933 17.8043 1.588 17.413C1.196 17.021 1 16.55 1 16V4C1 3.45 1.196 2.979 1.588 2.587C1.97933 2.19567 2.45 2 3 2H19C19.55 2 20.021 2.19567 20.413 2.587C20.8043 2.979 21 3.45 21 4V9H19V6L11 11ZM11 9L19 4H3L11 9ZM19 22C17.9 22 16.9583 21.6083 16.175 20.825C15.3917 20.0417 15 19.1 15 18V13.5C15 12.8 15.2417 12.2083 15.725 11.725C16.2083 11.2417 16.8 11 17.5 11C18.2 11 18.7917 11.2417 19.275 11.725C19.7583 12.2083 20 12.8 20 13.5V18H18V13.5C18 13.3667 17.95 13.25 17.85 13.15C17.75 13.05 17.6333 13 17.5 13C17.3667 13 17.25 13.05 17.15 13.15C17.05 13.25 17 13.3667 17 13.5V18C17 18.55 17.1957 19.021 17.587 19.413C17.979 19.8043 18.45 20 19 20C19.55 20 20.021 19.8043 20.413 19.413C20.8043 19.021 21 18.55 21 18V14H23V18C23 19.1 22.6083 20.0417 21.825 20.825C21.0417 21.6083 20.1 22 19 22ZM3 6V4V16V10V6Z" fill="black"/>
</svg>
