<svg width="24" height="24" viewBox="0 0 24 24" fill="none" xmlns="http://www.w3.org/2000/svg">
<path d="M12 7.6875C11.1471 7.6875 10.3133 7.94042 9.6041 8.41429C8.89492 8.88815 8.34217 9.56167 8.01577 10.3497C7.68937 11.1377 7.60397 12.0048 7.77036 12.8413C7.93676 13.6779 8.34749 14.4463 8.9506 15.0494C9.55372 15.6525 10.3221 16.0632 11.1587 16.2296C11.9952 16.396 12.8623 16.3106 13.6503 15.9842C14.4383 15.6578 15.1118 15.1051 15.5857 14.3959C16.0596 13.6867 16.3125 12.8529 16.3125 12C16.3125 10.8563 15.8581 9.75935 15.0494 8.9506C14.2406 8.14185 13.1437 7.6875 12 7.6875V7.6875ZM12 14.0625C11.5921 14.0625 11.1933 13.9415 10.8541 13.7149C10.515 13.4883 10.2506 13.1662 10.0945 12.7893C9.93839 12.4124 9.89755 11.9977 9.97713 11.5976C10.0567 11.1975 10.2531 10.83 10.5416 10.5416C10.83 10.2531 11.1975 10.0567 11.5976 9.97713C11.9977 9.89755 12.4124 9.93839 12.7893 10.0945C13.1662 10.2506 13.4883 10.515 13.7149 10.8541C13.9415 11.1933 14.0625 11.5921 14.0625 12C14.06 12.5462 13.8419 13.0694 13.4557 13.4557C13.0694 13.8419 12.5462 14.06 12 14.0625ZM16.5 1.875H7.5C6.00816 1.875 4.57742 2.46763 3.52252 3.52252C2.46763 4.57742 1.875 6.00816 1.875 7.5V16.5C1.875 17.9918 2.46763 19.4226 3.52252 20.4775C4.57742 21.5324 6.00816 22.125 7.5 22.125H16.5C17.9918 22.125 19.4226 21.5324 20.4775 20.4775C21.5324 19.4226 22.125 17.9918 22.125 16.5V7.5C22.125 6.00816 21.5324 4.57742 20.4775 3.52252C19.4226 2.46763 17.9918 1.875 16.5 1.875V1.875ZM19.875 16.5C19.875 17.3951 19.5194 18.2535 18.8865 18.8865C18.2535 19.5194 17.3951 19.875 16.5 19.875H7.5C6.60489 19.875 5.74645 19.5194 5.11351 18.8865C4.48058 18.2535 4.125 17.3951 4.125 16.5V7.5C4.125 6.60489 4.48058 5.74645 5.11351 5.11351C5.74645 4.48058 6.60489 4.125 7.5 4.125H16.5C17.3951 4.125 18.2535 4.48058 18.8865 5.11351C19.5194 5.74645 19.875 6.60489 19.875 7.5V16.5ZM18.375 7.125C18.375 7.42167 18.287 7.71168 18.1222 7.95836C17.9574 8.20503 17.7231 8.39729 17.449 8.51082C17.1749 8.62435 16.8733 8.65406 16.5824 8.59618C16.2914 8.5383 16.0241 8.39544 15.8143 8.18566C15.6046 7.97588 15.4617 7.70861 15.4038 7.41764C15.3459 7.12666 15.3756 6.82506 15.4892 6.55098C15.6027 6.27689 15.795 6.04262 16.0416 5.8778C16.2883 5.71297 16.5783 5.625 16.875 5.625C17.2728 5.625 17.6544 5.78304 17.9357 6.06434C18.217 6.34564 18.375 6.72718 18.375 7.125Z" fill="white"/>
</svg>
