<svg width="24" height="24" viewBox="0 0 24 24" fill="none" xmlns="http://www.w3.org/2000/svg">
<path d="M23 3.69231H18V2.76923C17.9967 2.03572 17.6796 1.33312 17.1177 0.814445C16.5558 0.29577 15.7946 0.00303735 15 0H9C8.20536 0.00303735 7.44421 0.29577 6.88231 0.814445C6.32042 1.33312 6.00329 2.03572 6 2.76923V3.69231H1C0.734784 3.69231 0.48043 3.78956 0.292893 3.96267C0.105357 4.13578 0 4.37057 0 4.61538C0 4.8602 0.105357 5.09499 0.292893 5.2681C0.48043 5.44121 0.734784 5.53846 1 5.53846H2V22.1538C2 22.6435 2.21071 23.1131 2.58579 23.4593C2.96086 23.8055 3.46957 24 4 24H20C20.5304 24 21.0391 23.8055 21.4142 23.4593C21.7893 23.1131 22 22.6435 22 22.1538V5.53846H23C23.2652 5.53846 23.5196 5.44121 23.7071 5.2681C23.8946 5.09499 24 4.8602 24 4.61538C24 4.37057 23.8946 4.13578 23.7071 3.96267C23.5196 3.78956 23.2652 3.69231 23 3.69231ZM8 2.76923C8 2.52442 8.10536 2.28963 8.29289 2.11652C8.48043 1.94341 8.73478 1.84615 9 1.84615H15C15.2652 1.84615 15.5196 1.94341 15.7071 2.11652C15.8946 2.28963 16 2.52442 16 2.76923V3.69231H8V2.76923ZM20 22.1538H4V5.53846H20V22.1538ZM10 10.1538V17.5385C10 17.7833 9.89464 18.0181 9.70711 18.1912C9.51957 18.3643 9.26522 18.4615 9 18.4615C8.73478 18.4615 8.48043 18.3643 8.29289 18.1912C8.10536 18.0181 8 17.7833 8 17.5385V10.1538C8 9.90903 8.10536 9.67424 8.29289 9.50113C8.48043 9.32802 8.73478 9.23077 9 9.23077C9.26522 9.23077 9.51957 9.32802 9.70711 9.50113C9.89464 9.67424 10 9.90903 10 10.1538V10.1538ZM16 10.1538V17.5385C16 17.7833 15.8946 18.0181 15.7071 18.1912C15.5196 18.3643 15.2652 18.4615 15 18.4615C14.7348 18.4615 14.4804 18.3643 14.2929 18.1912C14.1054 18.0181 14 17.7833 14 17.5385V10.1538C14 9.90903 14.1054 9.67424 14.2929 9.50113C14.4804 9.32802 14.7348 9.23077 15 9.23077C15.2652 9.23077 15.5196 9.32802 15.7071 9.50113C15.8946 9.67424 16 9.90903 16 10.1538V10.1538Z" fill="#26415F"/>
</svg>
